<!DOCTYPE svg PUBLIC "-//W3C//DTD SVG 1.1//EN" "http://www.w3.org/Graphics/SVG/1.1/DTD/svg11.dtd">
<!-- Uploaded to: SVG Repo, www.svgrepo.com, Transformed by: SVG Repo Mixer Tools -->
<svg fill="#ffffff" height="64px" width="64px" version="1.1" id="Layer_1" xmlns="http://www.w3.org/2000/svg" xmlns:xlink="http://www.w3.org/1999/xlink" viewBox="0 0 431.97 431.97" xml:space="preserve" stroke="#ffffff">
<g id="SVGRepo_bgCarrier" stroke-width="0"/>
<g id="SVGRepo_tracerCarrier" stroke-linecap="round" stroke-linejoin="round"/>
<g id="SVGRepo_iconCarrier"> <g> <g> <g> <path d="M431.97,307.375l-57.79-72.99l-23.56,22.74c-1.55,1.5-3.55,2.25-5.56,2.25c-2.05,0-4.09-0.78-5.65-2.34l-30.07-30.07 l-7.99,9.97l40.67,70.44H431.97z"/> <path d="M323.54,307.375l-60.92-105.52l-17.86-7.91v19.18c0,17.78-14.47,32.25-32.26,32.25h-24.49 c-8.96,0-16.25,7.29-16.25,16.25v0.5c0,8.96,7.29,16.25,16.25,16.25h66.49c16.69,0,30.46,12.74,32.09,29 c0.109,1.07,0.17,2.15,0.17,3.25v14.5c0,17.78-14.47,32.25-32.26,32.25H140.01c-8.96,0-16.25,7.29-16.25,16.25v4.5 c0,3.53,1.13,6.8,3.05,9.47h243.05l-37.08-64.22L323.54,307.375z"/> <path d="M140.01,341.375H254.5c8.97,0,16.26-7.29,16.26-16.25v-14.5c0-1.11-0.11-2.2-0.33-3.25c-1.51-7.41-8.07-13-15.93-13 h-66.49c-17.78,0-32.25-14.47-32.25-32.25v-0.5c0-17.78,14.47-32.25,32.25-32.25h24.49c8.97,0,16.26-7.29,16.26-16.25v-26.25 l-9.83-4.35l-18.35,30.02c-1.35,2.22-3.7,3.64-6.29,3.81c-0.18,0.01-0.36,0.02-0.53,0.02c-2.4,0-4.69-1.08-6.22-2.96 l-23.09-28.48l-70.69,122.44l-9.23,16l-37.08,64.22h61.73c-0.92-3-1.42-6.18-1.42-9.47v-4.5 C107.76,355.845,122.23,341.375,140.01,341.375z"/> <path d="M116.55,235.895l-6.43-11.07l-35.26,37.06c-1.51,1.6-3.61,2.49-5.8,2.49c-0.14,0-0.28,0-0.43-0.01 c-2.33-0.13-4.5-1.27-5.92-3.13l-20.56-26.88L0,307.375h75.28L116.55,235.895z"/> <polygon points="69.73,244.075 101.74,210.415 78.78,170.915 50.82,219.345 "/> <path d="M208.93,168.205c2.09-3.42,6.4-4.77,10.059-3.15l30.07,13.3l-40.41-69.98l-35.63,61.72l19.82,24.44L208.93,168.205z"/> <polygon points="345.16,240.155 364.12,221.855 338.76,190.255 319.41,214.405 "/> <path d="M407.54,95.375c-2.31-10.84-11.96-19-23.48-19c-4.5,0-8.88,1.25-12.66,3.61c-1.98,1.23-4.4,1.54-6.63,0.85 c-2.23-0.7-4.04-2.34-4.96-4.48c-4.43-10.32-14.53-16.98-25.75-16.98c-15.44,0-28,12.56-28,28c0,2.75,0.39,5.43,1.16,8H407.54z"/> <path d="M140.54,80.375c-2.31-10.84-11.96-19-23.48-19c-4.5,0-8.88,1.25-12.66,3.61c-1.98,1.23-4.4,1.54-6.63,0.85 c-2.22-0.7-4.04-2.34-4.96-4.48c-4.43-10.32-14.53-16.98-25.75-16.98c-15.44,0-28,12.56-28,28c0,2.75,0.39,5.43,1.16,8H140.54z"/> </g> </g> </g> </g>
</svg>