<?xml version="1.0" encoding="utf-8"?>
<!-- Generator: Adobe Illustrator 23.1.0, SVG Export Plug-In . SVG Version: 6.00 Build 0)  -->
<svg version="1.1" xmlns="http://www.w3.org/2000/svg" xmlns:xlink="http://www.w3.org/1999/xlink" x="0px" y="0px"
	 viewBox="0 0 595 842" style="enable-background:new 0 0 595 842;" xml:space="preserve">
<style type="text/css">
	.st0{display:none;}
	.st1{display:inline;}
	.st2{fill:none;stroke:#9BF00B;}
	.st3{display:inline;fill:none;stroke:#9BF00B;stroke-linecap:round;stroke-linejoin:round;}
	.st4{fill:#9BF00B;}
</style>
<g id="Layer_1" class="st0">
	<g class="st1">
		<polyline class="st2" points="-248.5,32.5 893.5,32.5 893.5,766.5 -248.5,766.5 -248.5,32.5 		"/>
		<line class="st2" x1="-248.5" y1="32.5" x2="893.5" y2="766.5"/>
		<line class="st2" x1="893.5" y1="32.5" x2="-248.5" y2="766.5"/>
	</g>
</g>
<g id="contour_1" class="st0">
	<circle class="st3" cx="112.5" cy="392.5" r="210"/>
	<circle class="st3" cx="622.5" cy="392.5" r="210"/>
	<circle class="st3" cx="112.5" cy="392.5" r="300"/>
	<circle class="st3" cx="622.5" cy="392.5" r="300"/>
</g>
<g id="lettre">
	<path class="st4" d="M652.5,691v-90.6c-9.8,1.4-19.8,2.1-30,2.1c-100.5,0-184.6-70.6-205.2-165h175.2v-90H417.3c20.6-94.4,104.6-165,205.2-165
		c10.2,0,20.2,0.7,30,2.1V94c-9.9-1-19.9-1.5-30-1.5c-165.7,0-300,134.3-300,300s134.3,300,300,300C632.6,692.5,642.6,692,652.5,691
		z"/>
	<path class="st4" d="M-187.5,392.5c0,165.7,134.3,300,300,300c10.8,0,21.5-0.6,32-1.7v-90.7c-10.4,1.6-21.1,2.4-32,2.4c-116,0-210-94-210-210
		s94-210,210-210c10.9,0,21.6,0.8,32,2.4V94.2c-10.5-1.1-21.2-1.7-32-1.7C-53.2,92.5-187.5,226.8-187.5,392.5z"/>
</g>
<g id="Layer_3">
</g>
</svg>
