<!DOCTYPE svg PUBLIC "-//W3C//DTD SVG 1.1//EN" "http://www.w3.org/Graphics/SVG/1.1/DTD/svg11.dtd">
<!-- Uploaded to: SVG Repo, www.svgrepo.com, Transformed by: SVG Repo Mixer Tools -->
<svg height="800px" width="800px" version="1.1" id="Layer_1" xmlns="http://www.w3.org/2000/svg" xmlns:xlink="http://www.w3.org/1999/xlink" viewBox="0 0 512 512" xml:space="preserve" fill="#ffffff" stroke="#ffffff">
<g id="SVGRepo_bgCarrier" stroke-width="0"/>
<g id="SVGRepo_tracerCarrier" stroke-linecap="round" stroke-linejoin="round"/>
<g id="SVGRepo_iconCarrier"> <path style="fill:#B0B0B0;" d="M408.406,408.407l-152.406-44.639l-152.407,44.639l44.639-152.406l-44.639-152.407L256,148.233 l152.406-44.639L363.766,256L408.406,408.407z"/> <path style="fill:#8B8B8B;" d="M408.406,408.407l-152.406-44.639V148.232l152.406-44.639l-44.639,152.406L408.406,408.407z"/> <g> <path style="fill:#ECECED;" d="M256,322.555c-17.778,0-34.49-6.923-47.06-19.493c-12.571-12.57-19.494-29.283-19.494-47.06 s6.923-34.49,19.494-47.061l0,0l0,0c12.57-12.57,29.283-19.493,47.06-19.493s34.49,6.923,47.06,19.493 c12.571,12.57,19.494,29.283,19.494,47.06c0,17.777-6.923,34.49-19.494,47.061C290.491,315.631,273.777,322.555,256,322.555z M256,222.844c-8.856,0-17.183,3.449-23.445,9.711l0,0c-6.262,6.262-9.712,14.588-9.712,23.444s3.45,17.182,9.712,23.444 s14.588,9.712,23.445,9.712c8.857,0,17.183-3.449,23.445-9.711s9.712-14.588,9.712-23.445c0-8.857-3.45-17.182-9.712-23.444 C273.183,226.294,264.856,222.844,256,222.844z"/> <circle style="fill:#ECECED;" cx="255.996" cy="255.997" r="15.049"/> </g> <path style="fill:#D7D7D7;" d="M256,240.951c8.312,0,15.049,6.738,15.049,15.049s-6.738,15.049-15.049,15.049 C256,257.569,256,246.221,256,240.951z"/> <path style="fill:#B0B0B0;" d="M400.886,224.591c-29.694,0-57.611-11.564-78.606-32.56c-20.996-20.996-32.56-48.913-32.56-78.606 s11.564-57.611,32.56-78.607c20.995-20.996,48.913-32.56,78.606-32.56c29.693,0,57.61,11.564,78.606,32.56l0,0 c43.344,43.344,43.344,113.87,0,157.213C458.496,213.029,430.579,224.591,400.886,224.591z M400.886,35.657 c-20.773,0-40.302,8.089-54.991,22.778c-14.689,14.688-22.778,34.219-22.778,54.991s8.089,40.302,22.778,54.991 c14.688,14.688,34.217,22.778,54.991,22.778s40.302-8.089,54.991-22.778c30.321-30.322,30.321-79.659,0-109.982 C441.188,43.746,421.659,35.657,400.886,35.657z"/> <g> <path style="fill:#9bf00b;" d="M373.543,101.364l-30.558-13.477c6.822-15.467,19.259-27.35,35.017-33.463 c15.759-6.113,32.956-5.722,48.423,1.1l-13.478,30.557c-7.301-3.221-15.422-3.407-22.867-0.52 C382.638,88.448,376.765,94.06,373.543,101.364z"/> <path style="fill:#9bf00b;" d="M424.564,172.111l-12.496-30.971c7.402-2.987,13.199-8.678,16.322-16.024 c3.123-7.346,3.196-15.47,0.209-22.872l30.971-12.498c6.326,15.676,6.168,32.876-0.444,48.433 C452.515,153.735,440.24,165.786,424.564,172.111z"/> </g> <path style="fill:#B0B0B0;" d="M400.886,509.741c-29.694,0-57.611-11.564-78.606-32.56c-20.996-20.996-32.56-48.914-32.56-78.607 c0-29.693,11.564-57.611,32.56-78.607c20.995-20.996,48.913-32.56,78.606-32.56c29.693,0,57.61,11.564,78.606,32.56 c43.344,43.344,43.344,113.87,0,157.214l0,0C458.496,498.179,430.579,509.741,400.886,509.741z M400.886,320.807 c-20.773,0-40.302,8.089-54.991,22.778c-14.689,14.688-22.778,34.217-22.778,54.991s8.089,40.303,22.778,54.991 c14.688,14.689,34.217,22.778,54.991,22.778s40.302-8.089,54.991-22.778c30.321-30.322,30.321-79.66,0-109.982 C441.188,328.896,421.659,320.807,400.886,320.807z"/> <g> <path style="fill:#9bf00b;" d="M400.905,461.893c-7.733,0-15.477-1.437-22.903-4.316c-15.758-6.112-28.195-17.996-35.017-33.463 l30.558-13.477c3.222,7.304,9.094,12.916,16.537,15.802c7.443,2.887,15.564,2.702,22.867-0.52l13.478,30.557 C418.245,460.084,409.583,461.893,400.905,461.893z"/> <path style="fill:#9bf00b;" d="M459.572,422.255l-30.971-12.498c2.987-7.402,2.912-15.526-0.209-22.872 c-3.123-7.346-8.92-13.038-16.322-16.024l12.496-30.971c15.676,6.324,27.95,18.376,34.563,33.932 C465.74,389.379,465.897,406.579,459.572,422.255z"/> </g> <path style="fill:#D7D7D7;" d="M111.114,224.591c-29.693,0-57.61-11.564-78.606-32.56c-43.344-43.343-43.344-113.869-0.001-157.213 l0,0c20.996-20.996,48.914-32.56,78.606-32.56c29.694,0,57.611,11.564,78.606,32.56c20.996,20.996,32.56,48.914,32.56,78.607 s-11.564,57.611-32.56,78.607C168.725,213.029,140.807,224.591,111.114,224.591z M56.123,58.435 c-30.321,30.322-30.321,79.66,0,109.982c14.688,14.689,34.218,22.778,54.991,22.778s40.302-8.089,54.991-22.778 c14.689-14.688,22.778-34.217,22.778-54.991s-8.089-40.303-22.778-54.991s-34.217-22.778-54.991-22.778S70.811,43.746,56.123,58.435 L56.123,58.435z"/> <g> <path style="fill:#9bf00b;" d="M138.456,101.364c-3.222-7.304-9.094-12.916-16.537-15.802c-7.442-2.886-15.562-2.701-22.867,0.52 L85.574,55.524c15.469-6.822,32.663-7.212,48.423-1.1c15.758,6.112,28.195,17.996,35.017,33.463L138.456,101.364z"/> <path style="fill:#9bf00b;" d="M87.435,172.111c-15.676-6.324-27.95-18.376-34.563-33.932c-6.612-15.557-6.77-32.757-0.444-48.433 l30.971,12.498c-2.987,7.402-2.912,15.526,0.209,22.872c3.123,7.346,8.92,13.038,16.322,16.024L87.435,172.111z"/> </g> <path style="fill:#D7D7D7;" d="M111.114,509.741c-29.693,0-57.61-11.564-78.606-32.56l0,0c-43.344-43.344-43.344-113.87,0-157.213 c20.996-20.996,48.914-32.56,78.606-32.56c29.694,0,57.611,11.564,78.606,32.56c20.996,20.996,32.56,48.913,32.56,78.606 c0,29.693-11.564,57.611-32.56,78.607C168.725,498.179,140.807,509.741,111.114,509.741z M56.123,453.566 c14.688,14.688,34.218,22.777,54.991,22.777s40.302-8.089,54.991-22.777c14.689-14.689,22.778-34.219,22.778-54.991 c0-20.772-8.089-40.301-22.778-54.991c-14.688-14.689-34.217-22.778-54.991-22.778s-40.302,8.089-54.991,22.778 C25.802,373.907,25.802,423.243,56.123,453.566L56.123,453.566z"/> <g> <path style="fill:#9bf00b;" d="M111.094,461.893c-8.679,0-17.339-1.809-25.52-5.417l13.478-30.557 c7.303,3.222,15.423,3.408,22.867,0.52c7.442-2.887,13.315-8.499,16.537-15.802l30.558,13.477 c-6.822,15.467-19.258,27.35-35.017,33.463C126.572,460.456,118.826,461.893,111.094,461.893z"/> <path style="fill:#9bf00b;" d="M52.428,422.255c-6.326-15.676-6.168-32.876,0.444-48.433s18.887-27.608,34.563-33.932 l12.496,30.971c-7.402,2.987-13.199,8.678-16.322,16.024s-3.196,15.47-0.209,22.872L52.428,422.255z"/> </g> <path style="fill:#D7D7D7;" d="M303.061,208.94c-12.57-12.571-29.283-19.493-47.06-19.493v33.398c8.856,0,17.183,3.449,23.445,9.712 c6.262,6.262,9.712,14.588,9.712,23.444s-3.45,17.182-9.712,23.445c-6.262,6.262-14.588,9.711-23.445,9.711v33.398 c17.778,0,34.49-6.923,47.06-19.493c12.571-12.571,19.494-29.285,19.494-47.061C322.555,238.224,315.632,221.51,303.061,208.94z"/> </g>
</svg>