<?xml version="1.0" encoding="iso-8859-1"?>
<!-- Uploaded to: SVG Repo, www.svgrepo.com, Generator: SVG Repo Mixer Tools -->
<svg height="800px" width="800px" version="1.1" id="Capa_1" xmlns="http://www.w3.org/2000/svg" xmlns:xlink="http://www.w3.org/1999/xlink" 
	 viewBox="0 0 47.47 47.47" xml:space="preserve">
<g>
	<path style="fill:#010002;" d="M5.517,41.801c0,1.331,1.08,2.408,2.408,2.408h3.613c1.33,0,2.41-1.077,2.41-2.408V31.062h5.869
		V41.8c0,1.331,1.082,2.408,2.41,2.408h3.611c1.332,0,2.412-1.077,2.412-2.408V31.062h5.871V41.8c0,1.331,1.078,2.408,2.408,2.408
		h3.615c1.326,0,2.408-1.077,2.408-2.408V31.062h2.506c1.33,0,2.41-0.766,2.41-1.707v-1.708h-4.914v-3.814h2.506
		c1.33,0,2.41-1.077,2.41-2.407v-7.829h-4.916V5.67l-4.367-2.41l-4.064,2.41v7.928h-5.871V5.67l-4.367-2.41l-4.066,2.41v7.928H13.95
		V5.67L9.585,3.26L5.519,5.67v7.928H2.408C1.08,13.598,0,14.678,0,16.009v7.825h5.519v3.814H2.408C1.08,27.648,0,28.416,0,29.356
		v1.707h5.519v10.738H5.517z M43.755,17.362c0.668,0,1.205,0.538,1.205,1.205c0,0.662-0.537,1.202-1.205,1.202
		c-0.664,0-1.201-0.54-1.201-1.202C42.554,17.9,43.091,17.362,43.755,17.362z M28.252,23.834h5.871v3.814h-5.871V23.834z
		 M13.949,23.834h5.869v3.814h-5.869V23.834z M3.558,19.77c-0.662,0-1.203-0.54-1.203-1.202c0-0.667,0.541-1.205,1.203-1.205
		c0.668,0,1.207,0.538,1.207,1.205C4.765,19.229,4.226,19.77,3.558,19.77z"/>
</g>
</svg>