<svg id="Layer_1" data-name="Layer 1" xmlns="http://www.w3.org/2000/svg" viewBox="0 0 125 150"><defs><style>.cls-1{fill:#231f20;}</style></defs><path class="cls-1" d="M322.28,445.92H308.51l-.85-.67c-1.11-1.44-2.27-2.86-3.34-4.33-1.23-1.68-2.4-3.42-3.71-5.31-.6.76-1.1,1.38-1.57,2-4.71,6.33-9.76,12.45-13.94,19.11-1.66,2.65-3.27,3-5.71,2.92-3.12-.06-6.25,0-9.37,0a12,12,0,0,1-2.15-.41c1.69-2.4,3.21-4.48,4.66-6.62,1.76-2.6,3.43-5.27,5.21-7.86q4-5.91,8.2-11.73c1.49-2.1,3-4.22,4.57-6.22a4.35,4.35,0,0,0-.76-6.5,12.06,12.06,0,0,1-2.07-2.46c-.53-.73-.9-1.59-1.42-2.33-3.08-4.39-6.19-8.76-9.6-13.59,5.56,0,10.55-.06,15.53.07.7,0,1.53.89,2,1.57,2.1,2.82,4.1,5.71,6.29,8.79,3.19-4.54,6.26-8.88,9.3-13.24,2.35-3.38,4.65-6.79,7-10.17a1.51,1.51,0,0,1,1.07-.54c4.73,0,9.45,0,14.17,0,.32,0,.63.32,1.22.63-2.3,3.26-4.54,6.41-6.77,9.56L312.11,419c-.87,1.23-1.64,2.55-2.61,3.69s-.49,1.86.19,2.82c4,5.69,8,11.42,12,17.15a8.68,8.68,0,0,1,.61,1.22Z" transform="translate(-235.27 -349.09)"/><path class="cls-1" d="M305.34,370.79c.36-1.23.63-2.49,1.09-3.67,3.23-8.32,9-14,17.42-16.73a26.88,26.88,0,0,1,14.31-.62c8.82,1.87,15,6.85,19,14.66A28.19,28.19,0,0,1,343,403.15a8.88,8.88,0,0,1-2.92.46c10.76-5.41,16.64-15.37,15.38-26.91a25.46,25.46,0,0,0-18.78-22.2,24.35,24.35,0,0,0-18.79,2.2C312,359.86,308.21,364.89,305.34,370.79Z" transform="translate(-235.27 -349.09)"/><path class="cls-1" d="M251.81,445.67c-17.95,14.28-13.55,33.14-2.95,42.53,9.73,8.6,29.19,10.37,40.17-8.79C287.81,488.2,276.78,500,260.58,499c-11.63-.67-24.57-13-25.22-24-.49-8.31,1-15.89,6.47-22.35C244.55,449.47,247.6,446.72,251.81,445.67Z" transform="translate(-235.27 -349.09)"/><path class="cls-1" d="M305.71,457.34c6.83,10.24,15.54,15.8,27.94,11.22,8.28-3.05,13.24-9.39,14.11-18.24,1.05-10.75-3.75-18.5-13.29-23.23,5.29-.93,15.12,8.65,16.58,16.26,3.08,16-5.39,26.82-17.64,30C321.81,476.39,309.05,469.1,305.71,457.34Z" transform="translate(-235.27 -349.09)"/><path class="cls-1" d="M266.16,414.46c-8-.1-16.72-7.57-19.17-16.28-4-14,4.47-25.28,14.38-28.72s24.12-.27,28.86,13.14c-1.7-4-11.4-11.91-20-11-9.13,1-17.11,5.91-20.05,18.47a15.23,15.23,0,0,0,1.44,10.32,32.65,32.65,0,0,0,5.89,8.6C260,411.34,263.29,412.71,266.16,414.46Z" transform="translate(-235.27 -349.09)"/></svg>