<!DOCTYPE svg PUBLIC "-//W3C//DTD SVG 1.1//EN" "http://www.w3.org/Graphics/SVG/1.1/DTD/svg11.dtd">
<!-- Uploaded to: SVG Repo, www.svgrepo.com, Transformed by: SVG Repo Mixer Tools -->
<svg fill="#ffffff" height="800px" width="800px" version="1.1" id="Layer_1" xmlns="http://www.w3.org/2000/svg" xmlns:xlink="http://www.w3.org/1999/xlink" viewBox="0 0 512.001 512.001" xml:space="preserve" stroke="#ffffff">
<g id="SVGRepo_bgCarrier" stroke-width="0"/>
<g id="SVGRepo_tracerCarrier" stroke-linecap="round" stroke-linejoin="round"/>
<g id="SVGRepo_iconCarrier"> <g> <g> <g> <path d="M256.001,127.815c-70.682,0-128.185,57.503-128.185,128.185s57.503,128.185,128.185,128.185 c61.602,0,113.186-43.68,125.425-101.693c0.008-0.037,0.016-0.073,0.024-0.108c1.789-8.518,2.737-17.342,2.737-26.383 c0-17.08-3.366-33.385-9.457-48.301c-0.006-0.016-0.013-0.034-0.021-0.05C355.584,160.866,309.584,127.815,256.001,127.815z M366.719,272.676H235.925c-4.481,0-8.112,3.631-8.112,8.112c0,4.481,3.631,8.112,8.112,8.112h127.1 c-14.087,45.73-56.735,79.06-107.024,79.06c-61.735,0-111.961-50.225-111.961-111.961c0-2.573,0.095-5.125,0.267-7.656h40.828 c4.481,0,8.112-3.631,8.112-8.112s-3.631-8.112-8.112-8.112h-38.523c10.972-50.3,55.847-88.081,109.389-88.081 c42.457,0,79.471,23.756,98.447,58.674h-69.545c-4.481,0-8.112,3.631-8.112,8.112c0,4.481,3.631,8.112,8.112,8.112h76.745 c4.083,11.606,6.313,24.078,6.313,37.063C367.962,261.666,367.535,267.233,366.719,272.676z"/> <path d="M256.001,82.467c-95.687,0-173.533,77.846-173.533,173.533s77.847,173.533,173.533,173.533 c30.354,0,60.249-7.99,86.453-23.105c25.404-14.655,46.87-35.665,62.073-60.759c2.321-3.833,1.097-8.822-2.734-11.143 c-3.83-2.321-8.82-1.098-11.142,2.733c-28.851,47.618-79.188,76.048-134.65,76.048c-86.74,0-157.309-70.568-157.309-157.309 S169.26,98.692,256.001,98.692S413.31,169.26,413.31,256.001c0,20.256-3.812,39.98-11.33,58.629 c-1.675,4.155,0.336,8.881,4.491,10.557c4.154,1.673,8.882-0.338,10.557-4.491c8.298-20.584,12.507-42.351,12.507-64.695 C429.534,160.314,351.688,82.467,256.001,82.467z"/> <path d="M471.48,394.277c26.509-41.23,40.521-89.046,40.521-138.278c0-49.374-14.063-97.204-40.675-138.492 c6.172-7.268,9.907-16.668,9.907-26.928c0-22.977-18.693-41.669-41.669-41.669c-8.719,0-16.818,2.696-23.516,7.292 C370.834,19.953,314.081,0,256.001,0C197.76,0,140.971,20.02,95.692,56.416c-6.756-4.724-14.965-7.508-23.817-7.508 c-22.977,0-41.669,18.693-41.669,41.669c0,10.438,3.866,19.983,10.23,27.301C13.983,159.081,0.001,206.8,0.001,256.001 c0,48.984,13.883,96.598,40.146,137.689c0.198,0.309,0.414,0.6,0.645,0.873c-6.578,7.37-10.587,17.081-10.587,27.714 c0,22.977,18.693,41.669,41.669,41.669c9.101,0,17.522-2.941,24.383-7.91C141.429,492.14,198.023,512.001,256,512.001 c58.463,0,113.503-19.188,159.175-55.49c0.105-0.083,0.199-0.175,0.299-0.263c6.807,4.84,15.117,7.699,24.088,7.699 c22.977,0,41.669-18.693,41.669-41.669c0-10.448-3.874-20.002-10.249-27.324C471.155,394.736,471.327,394.516,471.48,394.277z M439.562,65.134c14.031,0,25.445,11.415,25.445,25.445c0,14.031-11.415,25.445-25.445,25.445s-25.445-11.415-25.445-25.445 C414.116,76.549,425.531,65.134,439.562,65.134z M71.873,65.134c14.031,0,25.445,11.415,25.445,25.445 c0,14.031-11.415,25.445-25.445,25.445S46.428,104.61,46.428,90.579C46.428,76.549,57.844,65.134,71.873,65.134z M71.873,447.722 c-14.031,0-25.445-11.415-25.445-25.445c0-14.031,11.415-25.445,25.445-25.445s25.445,11.415,25.445,25.445 C97.32,436.307,85.904,447.722,71.873,447.722z M439.562,447.722c-14.031,0-25.445-11.415-25.445-25.445 c0-14.031,11.415-25.445,25.445-25.445s25.445,11.415,25.445,25.445S453.592,447.722,439.562,447.722z M458.15,384.999 c-5.601-2.805-11.912-4.392-18.59-4.392c-22.977,0-41.669,18.693-41.669,41.669c0,8.135,2.351,15.727,6.399,22.147 c-42.616,33.594-93.868,51.352-148.289,51.352c-53.895,0-106.516-18.317-148.664-51.65c3.932-6.358,6.207-13.842,6.207-21.85 c0-22.977-18.693-41.669-41.67-41.669c-6.508,0-12.671,1.502-18.165,4.174c-24.523-38.439-37.485-82.965-37.485-128.78 c0-45.598,12.817-89.832,37.081-128.131c5.595,2.797,11.898,4.381,18.567,4.381c22.977,0,41.669-18.693,41.669-41.669 c0-8.251-2.42-15.941-6.573-22.42c42.221-33.521,94.96-51.936,149.031-51.936c53.868,0,106.514,18.323,148.651,51.644 c-4.268,6.538-6.76,14.337-6.76,22.711c0,22.977,18.693,41.669,41.669,41.669c6.841,0,13.296-1.668,18.998-4.601 c24.358,38.351,37.216,82.644,37.216,128.353C495.775,301.914,482.763,346.504,458.15,384.999z"/> </g> </g> </g> </g>
</svg>