<?xml version="1.0" encoding="UTF-8"?>
<svg width="1200pt" height="1200pt" version="1.1" viewBox="0 0 1200 1200" xmlns="http://www.w3.org/2000/svg">
 <g>
  <path d="m789.84 859.8c-2.8711 19.055-12.551 36.422-27.242 48.887-14.695 12.469-33.41 19.188-52.676 18.914-28.641 0.050782-55.184-15-69.844-39.602h-107.64v43.199h-64.441v-43.199h-4.4414s-4.5586-45.84-9.7188-97.68l-180.48 188.4-31.441-31.441 206.52-215.28-6.7188-67.68c-6.9609-69.84-14.398-144-20.281-204l-190.44-207.24 31.559-30.961 121.44 131.64v-12h27.961c2.3984-16.559 10.801-25.32 26.398-36l5.8789-4.0781h0.60156v-0.003906c4.3086-2.3633 8.8047-4.3672 13.441-6v-19.68h64.559v7.3203c9.9609-0.96094 20.398-1.6797 31.441-2.0391v-16.082h118.56v19.082c26.125 2.2148 51.816 8.0703 76.32 17.398l5.3984 2.2812c3.0469 1.3125 5.9766 2.8789 8.7617 4.6797 7.0625-4.8359 15.441-7.3906 24-7.3203 9.793-0.09375 19.324 3.1797 26.992 9.2773 7.668 6.0938 13.008 14.637 15.129 24.203l108.84-113.64 30.719 32.52-144 150.24v79.559l-47.398 0.003907c-6.7188 84.719-15.121 192-21.48 274.32l174.72 189.6-30.84 31.559zm-79.918-31.801c-5.6367 0.55859-10.832 3.2852-14.496 7.6016-3.6602 4.3164-5.5039 9.8867-5.1406 15.539 0.36328 5.6484 2.9102 10.934 7.0977 14.746 4.1836 3.8086 9.6875 5.8438 15.348 5.6758 5.6602-0.16797 11.031-2.5273 14.984-6.5781 3.9531-4.0547 6.1758-9.4844 6.207-15.145-0.21875-6.1055-2.8867-11.863-7.4023-15.973-4.5195-4.1133-10.504-6.2266-16.598-5.8672zm-103.32 19.559h22.801-0.003906c0.90234-20.52 9.7422-39.887 24.652-54.016 14.914-14.129 34.73-21.91 55.27-21.703l-116.52-126.12-101.4 105.84 9.4805 96zm112.08-130.8c5.3984-70.078 12-151.56 17.398-220.68l-112.08 117.6zm-252-207.6c5.7617 58.559 12 124.32 18.238 183.84l77.16-80.398zm126.12 72 45.238-47.281-88.078 0.003906v-57.957h144l38.039-39.48v-41.52h-276l3.9609 41.398zm194.16-134.88v-3l-2.8789 3zm-46.199-104.88-1.5586-0.71875-2.2812-0.83984-5.7617-2.3984v-0.003906c-6.5078-2.625-13.207-4.75-20.039-6.3633-12.648-3.043-25.473-5.2891-38.402-6.7188v5.7617h-118.56v-9.2383c-12 0-22.078 1.1992-31.441 2.1602v18.359zm-282.6 0v-2.1602l-2.8789 2.1602z" fill="#9BF00B"/>
  <path d="m754.32 477.6 1.6797-13.203c0-3.6016 0.71875-7.3203 0.96094-10.801v-6.6016l53.762-56.039-0.003906 86.645z" fill="#9BF00B"/>
 </g>
</svg>
