<svg xmlns="http://www.w3.org/2000/svg" xmlns:xlink="http://www.w3.org/1999/xlink" width="100" zoomAndPan="magnify" viewBox="0 0 75 74.999997" height="100" preserveAspectRatio="xMidYMid meet" version="1.0"><defs><clipPath id="8f5d0f159d"><path d="M 16 46 L 27 46 L 27 72 L 16 72 Z M 16 46 " clip-rule="nonzero"/></clipPath><clipPath id="c233568013"><path d="M 0.675781 59 L 11 59 L 11 72 L 0.675781 72 Z M 0.675781 59 " clip-rule="nonzero"/></clipPath><clipPath id="f1bc52cff1"><path d="M 31 33 L 42 33 L 42 72 L 31 72 Z M 31 33 " clip-rule="nonzero"/></clipPath><clipPath id="efe1a322f6"><path d="M 62 7.5 L 72.675781 7.5 L 72.675781 72 L 62 72 Z M 62 7.5 " clip-rule="nonzero"/></clipPath><clipPath id="7ddf71ca56"><path d="M 46 20 L 58 20 L 58 72 L 46 72 Z M 46 20 " clip-rule="nonzero"/></clipPath></defs><g clip-path="url(#8f5d0f159d)"><path fill="#000000" d="M 16.105469 51.378906 L 16.105469 66.871094 C 16.105469 69.707031 18.40625 72.003906 21.246094 72.003906 C 24.085938 72.003906 26.390625 69.707031 26.390625 66.871094 L 26.390625 51.378906 C 26.390625 48.542969 24.085938 46.246094 21.246094 46.246094 C 18.40625 46.246094 16.105469 48.542969 16.105469 51.378906 " fill-opacity="1" fill-rule="nonzero"/></g><g clip-path="url(#c233568013)"><path fill="#000000" d="M 0.675781 64.289062 L 0.675781 66.871094 C 0.675781 69.707031 2.976562 72.003906 5.816406 72.003906 C 8.660156 72.003906 10.960938 69.707031 10.960938 66.871094 L 10.960938 64.289062 C 10.960938 61.453125 8.660156 59.15625 5.816406 59.15625 C 2.976562 59.15625 0.675781 61.453125 0.675781 64.289062 " fill-opacity="1" fill-rule="nonzero"/></g><g clip-path="url(#f1bc52cff1)"><path fill="#000000" d="M 31.53125 38.464844 L 31.53125 66.871094 C 31.53125 69.707031 33.835938 72.003906 36.675781 72.003906 C 39.515625 72.003906 41.816406 69.707031 41.816406 66.871094 L 41.816406 38.464844 C 41.816406 35.632812 39.515625 33.332031 36.675781 33.332031 C 33.835938 33.332031 31.53125 35.632812 31.53125 38.464844 " fill-opacity="1" fill-rule="nonzero"/></g><g clip-path="url(#efe1a322f6)"><path fill="#000000" d="M 67.53125 72.003906 C 70.371094 72.003906 72.675781 69.707031 72.675781 66.871094 L 72.675781 12.644531 C 72.675781 9.808594 70.371094 7.507812 67.53125 7.507812 C 64.691406 7.507812 62.390625 9.808594 62.390625 12.644531 L 62.390625 66.871094 C 62.390625 69.707031 64.691406 72.003906 67.53125 72.003906 " fill-opacity="1" fill-rule="nonzero"/></g><g clip-path="url(#7ddf71ca56)"><path fill="#000000" d="M 46.960938 25.554688 L 46.960938 66.871094 C 46.960938 69.707031 49.261719 72.003906 52.105469 72.003906 C 54.945312 72.003906 57.246094 69.707031 57.246094 66.871094 L 57.246094 25.554688 C 57.246094 22.71875 54.945312 20.421875 52.105469 20.421875 C 49.261719 20.421875 46.960938 22.71875 46.960938 25.554688 " fill-opacity="1" fill-rule="nonzero"/></g></svg>