<svg xmlns="http://www.w3.org/2000/svg" xmlns:xlink="http://www.w3.org/1999/xlink" width="100" zoomAndPan="magnify" viewBox="0 0 75 74.999997" height="100" preserveAspectRatio="xMidYMid meet" version="1.0"><defs><clipPath id="dc22f26f05"><path d="M 0 2.523438 L 75 2.523438 L 75 75 L 0 75 Z M 0 2.523438 " clip-rule="nonzero"/></clipPath></defs><g clip-path="url(#dc22f26f05)"><path fill="#000000" d="M 74.640625 50.136719 L 67.574219 39.746094 C 67.34375 39.398438 66.988281 39.164062 66.582031 39.085938 C 66.171875 39.007812 65.761719 39.097656 65.425781 39.328125 L 64.503906 39.953125 C 64.160156 40.1875 63.925781 40.542969 63.847656 40.953125 C 63.773438 41.363281 63.859375 41.777344 64.097656 42.121094 L 67.691406 47.414062 L 60.058594 45.363281 C 60.273438 44.09375 60.390625 42.792969 60.390625 41.492188 C 60.390625 35.550781 58.15625 29.960938 54.09375 25.679688 L 61.734375 18.011719 C 61.964844 17.777344 61.964844 17.398438 61.734375 17.164062 C 61.5 16.933594 61.125 16.933594 60.890625 17.164062 L 53.253906 24.835938 C 49.527344 21.28125 44.726562 19.089844 39.613281 18.617188 L 39.613281 10.683594 L 43.777344 15.546875 C 44.046875 15.859375 44.425781 16.046875 44.839844 16.078125 C 45.253906 16.109375 45.65625 15.976562 45.972656 15.699219 L 46.808594 14.972656 C 47.449219 14.414062 47.523438 13.433594 46.964844 12.777344 L 38.792969 3.238281 C 38.46875 2.859375 37.996094 2.644531 37.5 2.644531 C 37.003906 2.644531 36.53125 2.859375 36.203125 3.238281 L 28.03125 12.78125 C 27.476562 13.433594 27.546875 14.417969 28.191406 14.972656 L 29.027344 15.703125 C 29.34375 15.976562 29.742188 16.109375 30.160156 16.078125 C 30.574219 16.050781 30.949219 15.859375 31.222656 15.542969 L 35.382812 10.683594 L 35.382812 18.617188 C 30.269531 19.089844 25.46875 21.28125 21.746094 24.835938 L 14.105469 17.167969 C 13.875 16.933594 13.5 16.933594 13.265625 17.167969 C 13.035156 17.402344 13.035156 17.777344 13.265625 18.011719 L 20.90625 25.683594 C 16.84375 29.960938 14.605469 35.550781 14.605469 41.492188 C 14.605469 42.792969 14.722656 44.09375 14.941406 45.363281 L 7.308594 47.414062 L 10.902344 42.125 C 11.136719 41.777344 11.226562 41.363281 11.148438 40.953125 C 11.074219 40.542969 10.839844 40.1875 10.496094 39.957031 L 9.578125 39.332031 C 9.234375 39.097656 8.824219 39.007812 8.417969 39.085938 C 8.007812 39.164062 7.65625 39.398438 7.425781 39.742188 L 0.359375 50.136719 C 0.0742188 50.550781 -0.0117188 51.066406 0.117188 51.550781 C 0.246094 52.03125 0.578125 52.429688 1.023438 52.644531 L 12.324219 58.105469 C 12.539062 58.207031 12.765625 58.253906 12.988281 58.253906 C 13.566406 58.253906 14.125 57.929688 14.394531 57.378906 L 14.875 56.378906 C 15.058594 56 15.082031 55.574219 14.941406 55.175781 C 14.804688 54.785156 14.523438 54.46875 14.152344 54.296875 L 8.402344 51.515625 L 16.03125 49.464844 C 19.273438 58.273438 27.546875 64.214844 36.90625 64.457031 L 36.90625 75.296875 C 36.90625 75.625 37.171875 75.890625 37.5 75.890625 C 37.828125 75.890625 38.09375 75.625 38.09375 75.296875 L 38.09375 64.457031 C 47.453125 64.214844 55.726562 58.273438 58.96875 49.464844 L 66.59375 51.515625 L 60.851562 54.292969 C 60.476562 54.46875 60.195312 54.785156 60.054688 55.175781 C 59.917969 55.574219 59.941406 56 60.125 56.375 L 60.605469 57.378906 C 60.875 57.929688 61.429688 58.253906 62.007812 58.253906 C 62.234375 58.253906 62.460938 58.207031 62.675781 58.101562 L 73.972656 52.644531 C 74.417969 52.429688 74.75 52.03125 74.878906 51.550781 C 75.011719 51.066406 74.921875 50.550781 74.640625 50.136719 Z M 37.5 46.902344 C 35.566406 46.902344 33.769531 45.859375 32.816406 44.171875 C 32.347656 43.359375 32.109375 42.464844 32.101562 41.492188 C 32.101562 40.042969 32.664062 38.683594 33.679688 37.664062 C 34.363281 36.984375 35.210938 36.496094 36.132812 36.253906 C 36.566406 36.136719 37.027344 36.078125 37.5 36.078125 C 37.972656 36.078125 38.433594 36.136719 38.871094 36.253906 C 39.789062 36.496094 40.632812 36.984375 41.316406 37.660156 C 41.316406 37.660156 41.316406 37.660156 41.316406 37.664062 C 42.335938 38.683594 42.894531 40.046875 42.894531 41.519531 C 42.890625 42.464844 42.652344 43.359375 42.183594 44.175781 C 41.226562 45.859375 39.433594 46.902344 37.5 46.902344 Z M 59.203125 41.492188 C 59.203125 42.691406 59.097656 43.882812 58.90625 45.050781 L 44.0625 41.058594 C 43.972656 39.65625 43.453125 38.335938 42.558594 37.261719 L 53.253906 26.523438 C 57.089844 30.582031 59.203125 35.871094 59.203125 41.492188 Z M 52.414062 25.679688 L 41.707031 36.425781 C 41.082031 35.90625 40.375 35.507812 39.613281 35.25 L 39.613281 19.816406 C 44.410156 20.285156 48.910156 22.34375 52.414062 25.679688 Z M 35.382812 19.816406 L 35.382812 35.25 C 34.621094 35.507812 33.914062 35.90625 33.289062 36.425781 L 22.585938 25.679688 C 26.085938 22.347656 30.585938 20.285156 35.382812 19.816406 Z M 15.796875 41.492188 C 15.796875 35.871094 17.910156 30.582031 21.75 26.527344 L 32.441406 37.261719 C 31.550781 38.328125 31.03125 39.640625 30.9375 41.058594 L 16.09375 45.050781 C 15.898438 43.882812 15.796875 42.691406 15.796875 41.492188 Z M 17.183594 49.152344 L 32.039062 45.15625 C 33.140625 46.808594 34.929688 47.875 36.90625 48.058594 L 36.90625 63.261719 C 28.078125 63.023438 20.277344 57.441406 17.183594 49.152344 Z M 38.09375 63.261719 L 38.09375 48.058594 C 40.066406 47.875 41.859375 46.808594 42.957031 45.15625 L 57.816406 49.152344 C 54.71875 57.441406 46.917969 63.023438 38.09375 63.261719 Z M 38.09375 63.261719 " fill-opacity="1" fill-rule="nonzero"/></g></svg>