<svg xmlns="http://www.w3.org/2000/svg" xmlns:xlink="http://www.w3.org/1999/xlink" width="100" zoomAndPan="magnify" viewBox="0 0 75 74.999997" height="100" preserveAspectRatio="xMidYMid meet" version="1.0"><defs><clipPath id="948341092a"><path d="M 10 6 L 68.246094 6 L 68.246094 68 L 10 68 Z M 10 6 " clip-rule="nonzero"/></clipPath></defs><g clip-path="url(#948341092a)"><path fill="#000000" d="M 50.703125 8.332031 C 49.9375 7.003906 48.621094 6.246094 47.082031 6.246094 C 45.550781 6.246094 44.234375 7.003906 43.464844 8.332031 L 33.257812 25.996094 C 36.332031 27.199219 38.910156 29.410156 40.582031 32.300781 C 42.054688 34.84375 42.714844 37.738281 42.515625 40.617188 L 62.128906 40.617188 C 63.660156 40.617188 64.980469 39.859375 65.746094 38.53125 C 66.515625 37.203125 66.515625 35.6875 65.746094 34.359375 Z M 47.082031 36.820312 C 46.042969 36.820312 45.195312 35.972656 45.195312 34.933594 C 45.195312 33.894531 46.042969 33.046875 47.082031 33.046875 C 48.125 33.046875 48.972656 33.894531 48.972656 34.933594 C 48.972656 35.972656 48.125 36.820312 47.082031 36.820312 Z M 49.210938 17.527344 L 48.710938 27.585938 C 48.671875 28.4375 47.972656 29.101562 47.121094 29.101562 L 47.046875 29.101562 C 46.195312 29.101562 45.496094 28.4375 45.457031 27.585938 L 44.953125 17.527344 C 44.925781 16.9375 45.117188 16.417969 45.527344 15.992188 C 45.933594 15.5625 46.441406 15.339844 47.039062 15.339844 L 47.128906 15.339844 C 47.722656 15.339844 48.234375 15.558594 48.640625 15.992188 C 49.050781 16.417969 49.242188 16.9375 49.210938 17.527344 Z M 28.042969 11.964844 C 28.316406 11.492188 28.921875 11.328125 29.394531 11.601562 L 32.710938 13.511719 C 33.179688 13.785156 33.34375 14.390625 33.074219 14.863281 C 32.800781 15.335938 32.199219 15.496094 31.726562 15.226562 L 28.410156 13.3125 C 27.933594 13.042969 27.773438 12.4375 28.042969 11.964844 Z M 25.933594 19.824219 C 25.933594 19.28125 26.378906 18.835938 26.925781 18.835938 L 30.753906 18.835938 C 31.304688 18.835938 31.75 19.28125 31.75 19.824219 C 31.75 20.375 31.304688 20.820312 30.753906 20.820312 L 26.925781 20.820312 C 26.375 20.820312 25.933594 20.375 25.933594 19.824219 Z M 33.445312 7.558594 C 33.171875 7.082031 33.332031 6.480469 33.808594 6.207031 C 34.277344 5.929688 34.886719 6.09375 35.160156 6.566406 L 37.074219 9.878906 C 37.351562 10.347656 37.1875 10.957031 36.714844 11.230469 C 36.238281 11.503906 35.632812 11.34375 35.359375 10.867188 Z M 61.09375 14.859375 C 60.824219 14.390625 60.988281 13.785156 61.457031 13.511719 L 64.773438 11.601562 C 65.246094 11.328125 65.851562 11.492188 66.125 11.960938 C 66.394531 12.4375 66.234375 13.042969 65.761719 13.3125 L 62.441406 15.226562 C 61.972656 15.496094 61.367188 15.335938 61.09375 14.859375 Z M 68.238281 19.824219 C 68.238281 20.375 67.792969 20.820312 67.246094 20.820312 L 63.414062 20.820312 C 62.867188 20.820312 62.421875 20.375 62.421875 19.824219 C 62.421875 19.28125 62.867188 18.835938 63.414062 18.835938 L 67.246094 18.835938 C 67.792969 18.835938 68.238281 19.28125 68.238281 19.824219 Z M 57.097656 9.878906 L 59.007812 6.566406 C 59.28125 6.09375 59.890625 5.929688 60.363281 6.207031 C 60.835938 6.480469 60.996094 7.085938 60.722656 7.558594 L 58.808594 10.871094 C 58.535156 11.34375 57.929688 11.503906 57.453125 11.230469 C 56.984375 10.957031 56.820312 10.347656 57.097656 9.878906 Z M 31.164062 27.390625 C 24.394531 25.578125 17.441406 29.589844 15.628906 36.347656 C 13.816406 43.105469 17.832031 50.054688 24.597656 51.859375 C 31.363281 53.671875 38.316406 49.664062 40.128906 42.902344 C 41.945312 36.148438 37.925781 29.199219 31.164062 27.390625 Z M 37.269531 42.140625 C 35.878906 47.320312 30.546875 50.390625 25.367188 49.003906 C 20.179688 47.617188 17.101562 42.292969 18.492188 37.113281 C 19.878906 31.933594 25.210938 28.859375 30.394531 30.246094 C 35.582031 31.636719 38.660156 36.960938 37.269531 42.140625 Z M 22.148438 53.113281 L 20.484375 55.992188 L 21.164062 56.386719 C 21.53125 56.597656 21.660156 57.074219 21.449219 57.441406 L 16.476562 66.039062 C 15.558594 67.628906 13.5 68.183594 11.90625 67.261719 C 10.3125 66.34375 9.761719 64.289062 10.683594 62.695312 L 15.652344 54.097656 C 15.867188 53.730469 16.339844 53.601562 16.707031 53.816406 L 17.390625 54.210938 L 19.054688 51.332031 C 20.003906 52.046875 21.039062 52.648438 22.148438 53.113281 Z M 22.148438 53.113281 " fill-opacity="1" fill-rule="evenodd"/></g></svg>