<svg xmlns="http://www.w3.org/2000/svg" xmlns:xlink="http://www.w3.org/1999/xlink" width="100" zoomAndPan="magnify" viewBox="0 0 75 74.999997" height="100" preserveAspectRatio="xMidYMid meet" version="1.0"><defs><clipPath id="e5b9897aa6"><path d="M 1.6875 1 L 73.6875 1 L 73.6875 74 L 1.6875 74 Z M 1.6875 1 " clip-rule="nonzero"/></clipPath></defs><g clip-path="url(#e5b9897aa6)"><path fill="#000000" d="M 41.730469 58.703125 C 37.542969 62.472656 32.972656 65.714844 28.023438 68.421875 C 26.699219 69.191406 25.328125 69.910156 23.910156 70.566406 C 21.355469 69.515625 18.957031 68.1875 16.710938 66.582031 C 14.464844 64.980469 12.429688 63.144531 10.609375 61.074219 C 8.785156 59.003906 7.226562 56.757812 5.925781 54.332031 C 4.625 51.902344 3.617188 49.363281 2.902344 46.703125 C 4.34375 47.589844 5.851562 48.441406 7.359375 49.226562 C 12.652344 52.078125 18.203125 54.304688 24.003906 55.902344 C 29.808594 57.503906 35.714844 58.4375 41.730469 58.703125 Z M 21.167969 51.546875 C 18.414062 46.269531 16.277344 40.753906 14.761719 35 C 13.25 29.246094 12.390625 23.398438 12.191406 17.453125 C 12.191406 15.75 12.191406 14.046875 12.191406 12.375 C 10.535156 14.027344 9.058594 15.824219 7.753906 17.765625 C 6.453125 19.703125 5.351562 21.753906 4.453125 23.90625 C 3.554688 26.0625 2.871094 28.28125 2.410156 30.570312 C 1.949219 32.855469 1.710938 35.167969 1.703125 37.5 C 1.703125 39.050781 1.804688 40.597656 2.011719 42.136719 C 3.292969 43 4.59375 43.816406 5.917969 44.589844 C 10.746094 47.492188 15.839844 49.808594 21.203125 51.546875 Z M 42.382812 5.453125 C 43.855469 4.566406 45.363281 3.683594 46.90625 2.898438 C 44.25 2.199219 41.546875 1.804688 38.800781 1.722656 C 36.054688 1.636719 33.332031 1.867188 30.640625 2.402344 C 27.945312 2.941406 25.347656 3.777344 22.84375 4.90625 C 20.34375 6.039062 18.003906 7.4375 15.824219 9.101562 C 15.824219 10.636719 15.617188 12.171875 15.582031 13.703125 C 15.507812 19.308594 16.042969 24.855469 17.195312 30.339844 C 20.40625 25.308594 24.136719 20.691406 28.386719 16.492188 C 32.636719 12.292969 37.300781 8.613281 42.382812 5.453125 Z M 67.980469 25.566406 C 69.488281 26.351562 70.996094 27.203125 72.4375 28.089844 C 71.722656 25.433594 70.71875 22.890625 69.417969 20.464844 C 68.113281 18.039062 66.554688 15.789062 64.730469 13.71875 C 62.910156 11.652344 60.875 9.816406 58.628906 8.210938 C 56.382812 6.609375 53.984375 5.28125 51.429688 4.226562 C 50.011719 4.886719 48.640625 5.601562 47.316406 6.375 C 42.371094 9.089844 37.804688 12.328125 33.609375 16.089844 C 39.625 16.359375 45.53125 17.292969 51.335938 18.890625 C 57.136719 20.492188 62.6875 22.71875 67.980469 25.566406 Z M 63.148438 62.761719 C 64.816406 61.101562 66.304688 59.296875 67.613281 57.347656 C 68.925781 55.394531 70.03125 53.335938 70.933594 51.171875 C 71.835938 49.003906 72.515625 46.769531 72.976562 44.46875 C 73.4375 42.167969 73.667969 39.84375 73.671875 37.5 C 73.671875 35.949219 73.570312 34.402344 73.363281 32.863281 C 72.082031 32.023438 70.78125 31.203125 69.457031 30.410156 C 64.621094 27.554688 59.527344 25.28125 54.171875 23.589844 C 56.925781 28.867188 59.0625 34.382812 60.578125 40.136719 C 62.09375 45.890625 62.949219 51.738281 63.148438 57.683594 C 63.390625 59.386719 63.390625 61.089844 63.148438 62.761719 Z M 32.992188 69.578125 C 31.519531 70.464844 30.011719 71.351562 28.46875 72.136719 C 31.125 72.835938 33.828125 73.230469 36.574219 73.3125 C 39.320312 73.394531 42.042969 73.167969 44.734375 72.628906 C 47.429688 72.09375 50.027344 71.257812 52.53125 70.125 C 55.03125 68.996094 57.371094 67.597656 59.550781 65.933594 C 59.550781 64.398438 59.757812 62.863281 59.792969 61.328125 C 59.867188 55.726562 59.332031 50.179688 58.179688 44.691406 C 54.96875 49.71875 51.238281 54.328125 46.984375 58.523438 C 42.734375 62.71875 38.070312 66.390625 32.992188 69.546875 Z M 32.992188 69.578125 " fill-opacity="1" fill-rule="nonzero"/></g></svg>