<svg xmlns="http://www.w3.org/2000/svg" xmlns:xlink="http://www.w3.org/1999/xlink" width="100" zoomAndPan="magnify" viewBox="0 0 75 74.999997" height="100" preserveAspectRatio="xMidYMid meet" version="1.0"><path fill="#000000" d="M 14.011719 49.214844 L 12.980469 50.019531 C 12.863281 50.019531 12.863281 50.132812 12.980469 50.25 L 14.011719 51.054688 C 14.128906 51.167969 14.242188 51.054688 14.242188 50.9375 L 14.242188 49.328125 C 14.242188 49.214844 14.128906 49.101562 14.011719 49.214844 Z M 14.011719 49.214844 " fill-opacity="1" fill-rule="nonzero"/><path fill="#000000" d="M 17 53.695312 C 16.882812 53.695312 16.882812 53.808594 16.882812 53.925781 L 17.6875 54.957031 C 17.6875 55.074219 17.800781 55.074219 17.917969 54.957031 L 18.722656 53.925781 C 18.722656 53.808594 18.722656 53.695312 18.605469 53.695312 Z M 17 53.695312 " fill-opacity="1" fill-rule="nonzero"/><path fill="#000000" d="M 17.917969 45.308594 C 17.917969 45.195312 17.800781 45.195312 17.6875 45.308594 L 16.882812 46.34375 C 16.882812 46.457031 16.882812 46.574219 17 46.574219 L 18.605469 46.574219 C 18.722656 46.574219 18.722656 46.457031 18.722656 46.34375 Z M 17.917969 45.308594 " fill-opacity="1" fill-rule="nonzero"/><path fill="#000000" d="M 21.59375 49.214844 C 21.476562 49.101562 21.363281 49.214844 21.363281 49.328125 L 21.363281 50.9375 C 21.363281 51.054688 21.476562 51.054688 21.59375 51.054688 L 22.625 50.25 C 22.625 50.25 22.625 50.132812 22.625 50.019531 Z M 21.59375 49.214844 " fill-opacity="1" fill-rule="nonzero"/><path fill="#000000" d="M 17.800781 42.09375 C 13.324219 42.09375 9.761719 45.65625 9.761719 50.132812 C 9.761719 54.5 13.324219 58.171875 17.800781 58.171875 C 22.167969 58.171875 25.84375 54.613281 25.84375 50.132812 C 25.84375 45.769531 22.167969 42.09375 17.800781 42.09375 Z M 23.429688 51.167969 C 23.429688 51.398438 23.316406 51.511719 23.085938 51.511719 L 19.066406 51.511719 L 19.066406 55.417969 C 19.066406 55.648438 18.949219 55.761719 18.722656 55.761719 L 16.769531 55.761719 C 16.652344 55.761719 16.425781 55.648438 16.425781 55.417969 L 16.425781 51.398438 L 12.402344 51.398438 C 12.289062 51.398438 12.058594 51.28125 12.058594 51.054688 L 12.058594 49.101562 C 12.058594 48.871094 12.175781 48.753906 12.402344 48.753906 L 16.425781 48.753906 L 16.425781 44.734375 C 16.425781 44.507812 16.539062 44.390625 16.769531 44.390625 L 18.722656 44.390625 C 18.835938 44.390625 19.066406 44.507812 19.066406 44.734375 L 19.066406 48.753906 L 23.085938 48.753906 C 23.199219 48.753906 23.429688 48.871094 23.429688 49.101562 Z M 23.429688 51.167969 " fill-opacity="1" fill-rule="nonzero"/><path fill="#000000" d="M 60.296875 42.4375 L 60.296875 46 C 60.296875 46.917969 61.101562 47.722656 62.019531 47.722656 L 65.582031 47.722656 C 64.894531 45.308594 62.824219 43.242188 60.296875 42.4375 Z M 60.296875 42.4375 " fill-opacity="1" fill-rule="nonzero"/><path fill="#000000" d="M 60.296875 54.152344 L 60.296875 57.714844 C 62.824219 56.910156 64.894531 54.957031 65.582031 52.429688 L 62.019531 52.429688 C 61.101562 52.429688 60.296875 53.234375 60.296875 54.152344 Z M 60.296875 54.152344 " fill-opacity="1" fill-rule="nonzero"/><path fill="#000000" d="M 59.148438 46.113281 L 59.148438 42.324219 C 58.804688 42.210938 58.347656 42.210938 58 42.210938 C 57.542969 42.210938 57.199219 42.210938 56.851562 42.324219 L 56.851562 46.113281 C 56.851562 47.722656 55.589844 48.984375 53.980469 48.984375 L 50.191406 48.984375 C 50.078125 49.328125 50.078125 49.789062 50.078125 50.132812 C 50.078125 50.59375 50.078125 50.9375 50.191406 51.28125 L 53.980469 51.28125 C 55.589844 51.28125 56.851562 52.546875 56.851562 54.152344 L 56.851562 57.945312 C 57.199219 58.058594 57.65625 58.058594 58 58.058594 C 58.460938 58.058594 58.804688 58.058594 59.148438 57.945312 L 59.148438 54.152344 C 59.148438 52.546875 60.414062 51.28125 62.019531 51.28125 L 65.8125 51.28125 C 65.925781 50.9375 65.925781 50.480469 65.925781 50.132812 C 65.925781 49.675781 65.925781 49.328125 65.8125 48.984375 L 62.019531 48.984375 C 60.527344 48.984375 59.148438 47.605469 59.148438 46.113281 Z M 59.148438 46.113281 " fill-opacity="1" fill-rule="nonzero"/><path fill="#000000" d="M 53.980469 52.429688 L 50.421875 52.429688 C 51.226562 54.957031 53.175781 56.910156 55.703125 57.714844 L 55.703125 54.152344 C 55.703125 53.234375 54.902344 52.429688 53.980469 52.429688 Z M 53.980469 52.429688 " fill-opacity="1" fill-rule="nonzero"/><path fill="#000000" d="M 55.703125 46.113281 L 55.703125 42.554688 C 53.175781 43.359375 51.109375 45.308594 50.421875 47.835938 L 53.980469 47.835938 C 54.902344 47.835938 55.703125 47.03125 55.703125 46.113281 Z M 55.703125 46.113281 " fill-opacity="1" fill-rule="nonzero"/><path fill="#000000" d="M 9.761719 37.386719 C 10.910156 37.386719 11.828125 36.464844 11.828125 35.316406 C 11.828125 34.167969 10.910156 33.25 9.761719 33.25 C 8.613281 33.25 7.695312 34.167969 7.695312 35.316406 C 7.695312 36.464844 8.613281 37.386719 9.761719 37.386719 Z M 9.761719 37.386719 " fill-opacity="1" fill-rule="nonzero"/><path fill="#000000" d="M 65.351562 33.25 C 64.203125 33.25 63.285156 34.167969 63.285156 35.316406 C 63.285156 36.464844 64.203125 37.386719 65.351562 37.386719 C 66.5 37.386719 67.417969 36.464844 67.417969 35.316406 C 67.417969 34.167969 66.5 33.25 65.351562 33.25 Z M 65.351562 33.25 " fill-opacity="1" fill-rule="nonzero"/><path fill="#000000" d="M 72.359375 31.183594 C 72.128906 29.804688 71.09375 28.769531 69.714844 28.542969 C 62.480469 27.277344 55.015625 26.359375 47.664062 25.898438 C 47.550781 26.246094 47.320312 26.472656 47.089844 26.703125 L 39.625 34.167969 C 39.050781 34.742188 38.246094 35.089844 37.441406 35.089844 C 36.636719 35.089844 35.835938 34.742188 35.261719 34.167969 L 27.792969 26.703125 C 27.566406 26.472656 27.335938 26.246094 27.21875 25.898438 C 19.871094 26.359375 12.519531 27.164062 5.167969 28.542969 C 3.789062 28.769531 2.757812 29.804688 2.527344 31.183594 C 0 45.65625 0 53.808594 2.527344 68.28125 C 2.757812 69.660156 3.789062 70.691406 5.167969 70.921875 C 26.53125 74.828125 48.355469 74.828125 69.601562 70.921875 C 70.980469 70.691406 72.015625 69.660156 72.242188 68.28125 C 75 53.808594 75 45.65625 72.359375 31.183594 Z M 9.761719 31.757812 C 11.714844 31.757812 13.207031 33.367188 13.207031 35.316406 C 13.207031 37.269531 11.601562 38.761719 9.761719 38.761719 C 7.808594 38.761719 6.316406 37.15625 6.316406 35.316406 C 6.316406 33.367188 7.808594 31.757812 9.761719 31.757812 Z M 7.007812 50.132812 C 7.007812 44.160156 11.828125 39.335938 17.800781 39.335938 C 23.773438 39.335938 28.597656 44.160156 28.597656 50.132812 C 28.597656 56.105469 23.773438 60.929688 17.800781 60.929688 C 11.828125 60.929688 7.007812 56.105469 7.007812 50.132812 Z M 50.421875 67.132812 C 50.421875 68.167969 49.503906 69.085938 48.46875 69.085938 L 26.644531 69.085938 C 25.613281 69.085938 24.695312 68.167969 24.695312 67.132812 L 24.695312 61.847656 C 24.695312 60.816406 25.613281 59.898438 26.644531 59.898438 L 48.46875 59.898438 C 49.503906 59.898438 50.421875 60.816406 50.421875 61.847656 Z M 58 60.929688 C 52.027344 60.929688 47.207031 56.105469 47.207031 50.132812 C 47.207031 44.160156 52.027344 39.335938 58 39.335938 C 63.972656 39.335938 68.796875 44.160156 68.796875 50.132812 C 68.796875 56.105469 63.972656 60.929688 58 60.929688 Z M 65.351562 38.878906 C 63.398438 38.878906 61.90625 37.269531 61.90625 35.433594 C 61.90625 33.480469 63.515625 31.871094 65.351562 31.871094 C 67.304688 31.871094 68.914062 33.480469 68.914062 35.433594 C 68.796875 37.269531 67.304688 38.878906 65.351562 38.878906 Z M 65.351562 38.878906 " fill-opacity="1" fill-rule="nonzero"/><path fill="#000000" d="M 35.835938 13.726562 L 35.835938 23.144531 L 31.816406 23.144531 C 30.550781 23.144531 29.632812 24.175781 29.632812 25.324219 L 36.984375 32.789062 C 37.328125 33.136719 37.789062 33.136719 38.132812 32.789062 L 45.480469 25.324219 C 45.480469 24.0625 44.449219 23.144531 43.300781 23.144531 L 39.28125 23.144531 L 39.28125 13.726562 C 40.660156 13.035156 41.578125 11.65625 41.578125 10.164062 C 41.578125 7.867188 39.738281 6.03125 37.558594 6.03125 C 35.375 6.03125 33.539062 7.867188 33.539062 10.050781 C 33.539062 11.65625 34.457031 13.035156 35.835938 13.726562 Z M 35.835938 13.726562 " fill-opacity="1" fill-rule="nonzero"/><path fill="#000000" d="M 42.152344 15.792969 C 42.265625 15.90625 42.496094 16.023438 42.726562 16.023438 C 42.957031 16.023438 43.183594 15.90625 43.300781 15.792969 C 46.515625 12.578125 46.515625 7.523438 43.300781 4.308594 C 42.957031 3.960938 42.496094 3.960938 42.152344 4.308594 C 41.808594 4.652344 41.808594 5.109375 42.152344 5.457031 C 44.679688 7.980469 44.679688 12.117188 42.152344 14.644531 C 41.808594 14.988281 41.808594 15.449219 42.152344 15.792969 Z M 42.152344 15.792969 " fill-opacity="1" fill-rule="nonzero"/><path fill="#000000" d="M 46.058594 18.550781 C 45.710938 18.894531 45.710938 19.351562 46.058594 19.699219 C 46.171875 19.8125 46.402344 19.925781 46.632812 19.925781 C 46.859375 19.925781 47.089844 19.8125 47.207031 19.699219 C 52.488281 14.414062 52.488281 5.800781 47.207031 0.515625 C 46.859375 0.171875 46.402344 0.171875 46.058594 0.515625 C 45.710938 0.863281 45.710938 1.320312 46.058594 1.664062 C 50.652344 6.257812 50.652344 13.839844 46.058594 18.550781 Z M 46.058594 18.550781 " fill-opacity="1" fill-rule="nonzero"/><path fill="#000000" d="M 29.863281 17.746094 C 29.976562 17.859375 30.207031 17.976562 30.4375 17.976562 C 30.667969 17.976562 30.78125 17.859375 31.011719 17.746094 C 31.355469 17.402344 31.355469 16.941406 31.011719 16.597656 C 27.449219 13.035156 27.449219 7.179688 31.011719 3.617188 C 31.355469 3.273438 31.355469 2.8125 31.011719 2.46875 C 30.667969 2.125 30.207031 2.125 29.863281 2.46875 C 27.792969 4.535156 26.761719 7.179688 26.761719 10.050781 C 26.761719 13.035156 27.910156 15.675781 29.863281 17.746094 Z M 29.863281 17.746094 " fill-opacity="1" fill-rule="nonzero"/><path fill="#000000" d="M 31.816406 15.792969 C 31.929688 15.90625 32.160156 16.023438 32.390625 16.023438 C 32.617188 16.023438 32.847656 15.90625 32.964844 15.792969 C 33.308594 15.449219 33.308594 14.988281 32.964844 14.644531 C 30.4375 12.117188 30.4375 7.980469 32.964844 5.457031 C 33.308594 5.109375 33.308594 4.652344 32.964844 4.308594 C 32.617188 3.960938 32.160156 3.960938 31.816406 4.308594 C 28.714844 7.523438 28.714844 12.691406 31.816406 15.792969 Z M 31.816406 15.792969 " fill-opacity="1" fill-rule="nonzero"/><path fill="#000000" d="M 44.105469 16.597656 C 43.757812 16.941406 43.757812 17.402344 44.105469 17.746094 C 44.21875 17.859375 44.449219 17.976562 44.679688 17.976562 C 44.90625 17.976562 45.023438 17.859375 45.253906 17.746094 C 47.320312 15.675781 48.46875 13.035156 48.46875 10.050781 C 48.46875 7.0625 47.320312 4.421875 45.367188 2.355469 C 45.023438 2.011719 44.5625 2.011719 44.21875 2.355469 C 43.875 2.699219 43.875 3.160156 44.21875 3.503906 C 47.664062 7.179688 47.664062 13.035156 44.105469 16.597656 Z M 44.105469 16.597656 " fill-opacity="1" fill-rule="nonzero"/><path fill="#000000" d="M 28.597656 19.925781 C 28.828125 19.925781 29.058594 19.8125 29.171875 19.699219 C 29.519531 19.351562 29.519531 18.894531 29.171875 18.550781 C 24.464844 13.839844 24.464844 6.375 29.171875 1.664062 C 29.519531 1.320312 29.519531 0.863281 29.171875 0.515625 C 28.828125 0.171875 28.367188 0.171875 28.023438 0.515625 C 22.742188 5.800781 22.742188 14.414062 28.023438 19.699219 C 28.140625 19.8125 28.367188 19.925781 28.597656 19.925781 Z M 28.597656 19.925781 " fill-opacity="1" fill-rule="nonzero"/><path fill="#000000" d="M 14.011719 49.214844 L 12.980469 50.019531 C 12.863281 50.019531 12.863281 50.132812 12.980469 50.25 L 14.011719 51.054688 C 14.128906 51.167969 14.242188 51.054688 14.242188 50.9375 L 14.242188 49.328125 C 14.242188 49.214844 14.128906 49.101562 14.011719 49.214844 Z M 14.011719 49.214844 " fill-opacity="1" fill-rule="nonzero"/><path fill="#000000" d="M 17 53.695312 C 16.882812 53.695312 16.882812 53.808594 16.882812 53.925781 L 17.6875 54.957031 C 17.6875 55.074219 17.800781 55.074219 17.917969 54.957031 L 18.722656 53.925781 C 18.722656 53.808594 18.722656 53.695312 18.605469 53.695312 Z M 17 53.695312 " fill-opacity="1" fill-rule="nonzero"/><path fill="#000000" d="M 17.917969 45.308594 C 17.917969 45.195312 17.800781 45.195312 17.6875 45.308594 L 16.882812 46.34375 C 16.882812 46.457031 16.882812 46.574219 17 46.574219 L 18.605469 46.574219 C 18.722656 46.574219 18.722656 46.457031 18.722656 46.34375 Z M 17.917969 45.308594 " fill-opacity="1" fill-rule="nonzero"/><path fill="#000000" d="M 21.59375 49.214844 C 21.476562 49.101562 21.363281 49.214844 21.363281 49.328125 L 21.363281 50.9375 C 21.363281 51.054688 21.476562 51.054688 21.59375 51.054688 L 22.625 50.25 C 22.625 50.25 22.625 50.132812 22.625 50.019531 Z M 21.59375 49.214844 " fill-opacity="1" fill-rule="nonzero"/><path fill="#000000" d="M 17.800781 42.09375 C 13.324219 42.09375 9.761719 45.65625 9.761719 50.132812 C 9.761719 54.5 13.324219 58.171875 17.800781 58.171875 C 22.167969 58.171875 25.84375 54.613281 25.84375 50.132812 C 25.84375 45.769531 22.167969 42.09375 17.800781 42.09375 Z M 23.429688 51.167969 C 23.429688 51.398438 23.316406 51.511719 23.085938 51.511719 L 19.066406 51.511719 L 19.066406 55.417969 C 19.066406 55.648438 18.949219 55.761719 18.722656 55.761719 L 16.769531 55.761719 C 16.652344 55.761719 16.425781 55.648438 16.425781 55.417969 L 16.425781 51.398438 L 12.402344 51.398438 C 12.289062 51.398438 12.058594 51.28125 12.058594 51.054688 L 12.058594 49.101562 C 12.058594 48.871094 12.175781 48.753906 12.402344 48.753906 L 16.425781 48.753906 L 16.425781 44.734375 C 16.425781 44.507812 16.539062 44.390625 16.769531 44.390625 L 18.722656 44.390625 C 18.835938 44.390625 19.066406 44.507812 19.066406 44.734375 L 19.066406 48.753906 L 23.085938 48.753906 C 23.199219 48.753906 23.429688 48.871094 23.429688 49.101562 Z M 23.429688 51.167969 " fill-opacity="1" fill-rule="nonzero"/><path fill="#000000" d="M 60.296875 42.4375 L 60.296875 46 C 60.296875 46.917969 61.101562 47.722656 62.019531 47.722656 L 65.582031 47.722656 C 64.894531 45.308594 62.824219 43.242188 60.296875 42.4375 Z M 60.296875 42.4375 " fill-opacity="1" fill-rule="nonzero"/><path fill="#000000" d="M 60.296875 54.152344 L 60.296875 57.714844 C 62.824219 56.910156 64.894531 54.957031 65.582031 52.429688 L 62.019531 52.429688 C 61.101562 52.429688 60.296875 53.234375 60.296875 54.152344 Z M 60.296875 54.152344 " fill-opacity="1" fill-rule="nonzero"/><path fill="#000000" d="M 59.148438 46.113281 L 59.148438 42.324219 C 58.804688 42.210938 58.347656 42.210938 58 42.210938 C 57.542969 42.210938 57.199219 42.210938 56.851562 42.324219 L 56.851562 46.113281 C 56.851562 47.722656 55.589844 48.984375 53.980469 48.984375 L 50.191406 48.984375 C 50.078125 49.328125 50.078125 49.789062 50.078125 50.132812 C 50.078125 50.59375 50.078125 50.9375 50.191406 51.28125 L 53.980469 51.28125 C 55.589844 51.28125 56.851562 52.546875 56.851562 54.152344 L 56.851562 57.945312 C 57.199219 58.058594 57.65625 58.058594 58 58.058594 C 58.460938 58.058594 58.804688 58.058594 59.148438 57.945312 L 59.148438 54.152344 C 59.148438 52.546875 60.414062 51.28125 62.019531 51.28125 L 65.8125 51.28125 C 65.925781 50.9375 65.925781 50.480469 65.925781 50.132812 C 65.925781 49.675781 65.925781 49.328125 65.8125 48.984375 L 62.019531 48.984375 C 60.527344 48.984375 59.148438 47.605469 59.148438 46.113281 Z M 59.148438 46.113281 " fill-opacity="1" fill-rule="nonzero"/><path fill="#000000" d="M 53.980469 52.429688 L 50.421875 52.429688 C 51.226562 54.957031 53.175781 56.910156 55.703125 57.714844 L 55.703125 54.152344 C 55.703125 53.234375 54.902344 52.429688 53.980469 52.429688 Z M 53.980469 52.429688 " fill-opacity="1" fill-rule="nonzero"/><path fill="#000000" d="M 55.703125 46.113281 L 55.703125 42.554688 C 53.175781 43.359375 51.109375 45.308594 50.421875 47.835938 L 53.980469 47.835938 C 54.902344 47.835938 55.703125 47.03125 55.703125 46.113281 Z M 55.703125 46.113281 " fill-opacity="1" fill-rule="nonzero"/><path fill="#000000" d="M 9.761719 37.386719 C 10.910156 37.386719 11.828125 36.464844 11.828125 35.316406 C 11.828125 34.167969 10.910156 33.25 9.761719 33.25 C 8.613281 33.25 7.695312 34.167969 7.695312 35.316406 C 7.695312 36.464844 8.613281 37.386719 9.761719 37.386719 Z M 9.761719 37.386719 " fill-opacity="1" fill-rule="nonzero"/><path fill="#000000" d="M 65.351562 33.25 C 64.203125 33.25 63.285156 34.167969 63.285156 35.316406 C 63.285156 36.464844 64.203125 37.386719 65.351562 37.386719 C 66.5 37.386719 67.417969 36.464844 67.417969 35.316406 C 67.417969 34.167969 66.5 33.25 65.351562 33.25 Z M 65.351562 33.25 " fill-opacity="1" fill-rule="nonzero"/><path fill="#000000" d="M 72.359375 31.183594 C 72.128906 29.804688 71.09375 28.769531 69.714844 28.542969 C 62.480469 27.277344 55.015625 26.359375 47.664062 25.898438 C 47.550781 26.246094 47.320312 26.472656 47.089844 26.703125 L 39.625 34.167969 C 39.050781 34.742188 38.246094 35.089844 37.441406 35.089844 C 36.636719 35.089844 35.835938 34.742188 35.261719 34.167969 L 27.792969 26.703125 C 27.566406 26.472656 27.335938 26.246094 27.21875 25.898438 C 19.871094 26.359375 12.519531 27.164062 5.167969 28.542969 C 3.789062 28.769531 2.757812 29.804688 2.527344 31.183594 C 0 45.65625 0 53.808594 2.527344 68.28125 C 2.757812 69.660156 3.789062 70.691406 5.167969 70.921875 C 26.53125 74.828125 48.355469 74.828125 69.601562 70.921875 C 70.980469 70.691406 72.015625 69.660156 72.242188 68.28125 C 75 53.808594 75 45.65625 72.359375 31.183594 Z M 9.761719 31.757812 C 11.714844 31.757812 13.207031 33.367188 13.207031 35.316406 C 13.207031 37.269531 11.601562 38.761719 9.761719 38.761719 C 7.808594 38.761719 6.316406 37.15625 6.316406 35.316406 C 6.316406 33.367188 7.808594 31.757812 9.761719 31.757812 Z M 7.007812 50.132812 C 7.007812 44.160156 11.828125 39.335938 17.800781 39.335938 C 23.773438 39.335938 28.597656 44.160156 28.597656 50.132812 C 28.597656 56.105469 23.773438 60.929688 17.800781 60.929688 C 11.828125 60.929688 7.007812 56.105469 7.007812 50.132812 Z M 50.421875 67.132812 C 50.421875 68.167969 49.503906 69.085938 48.46875 69.085938 L 26.644531 69.085938 C 25.613281 69.085938 24.695312 68.167969 24.695312 67.132812 L 24.695312 61.847656 C 24.695312 60.816406 25.613281 59.898438 26.644531 59.898438 L 48.46875 59.898438 C 49.503906 59.898438 50.421875 60.816406 50.421875 61.847656 Z M 58 60.929688 C 52.027344 60.929688 47.207031 56.105469 47.207031 50.132812 C 47.207031 44.160156 52.027344 39.335938 58 39.335938 C 63.972656 39.335938 68.796875 44.160156 68.796875 50.132812 C 68.796875 56.105469 63.972656 60.929688 58 60.929688 Z M 65.351562 38.878906 C 63.398438 38.878906 61.90625 37.269531 61.90625 35.433594 C 61.90625 33.480469 63.515625 31.871094 65.351562 31.871094 C 67.304688 31.871094 68.914062 33.480469 68.914062 35.433594 C 68.796875 37.269531 67.304688 38.878906 65.351562 38.878906 Z M 65.351562 38.878906 " fill-opacity="1" fill-rule="nonzero"/><path fill="#000000" d="M 35.835938 13.726562 L 35.835938 23.144531 L 31.816406 23.144531 C 30.550781 23.144531 29.632812 24.175781 29.632812 25.324219 L 36.984375 32.789062 C 37.328125 33.136719 37.789062 33.136719 38.132812 32.789062 L 45.480469 25.324219 C 45.480469 24.0625 44.449219 23.144531 43.300781 23.144531 L 39.28125 23.144531 L 39.28125 13.726562 C 40.660156 13.035156 41.578125 11.65625 41.578125 10.164062 C 41.578125 7.867188 39.738281 6.03125 37.558594 6.03125 C 35.375 6.03125 33.539062 7.867188 33.539062 10.050781 C 33.539062 11.65625 34.457031 13.035156 35.835938 13.726562 Z M 35.835938 13.726562 " fill-opacity="1" fill-rule="nonzero"/><path fill="#000000" d="M 42.152344 15.792969 C 42.496094 16.136719 42.957031 16.023438 43.300781 15.792969 C 46.515625 12.578125 46.515625 7.523438 43.300781 4.308594 C 42.957031 3.960938 42.496094 3.960938 42.152344 4.308594 C 41.808594 4.652344 41.808594 5.109375 42.152344 5.457031 C 44.679688 7.980469 44.679688 12.117188 42.152344 14.644531 C 41.808594 14.988281 41.808594 15.449219 42.152344 15.792969 Z M 42.152344 15.792969 " fill-opacity="1" fill-rule="nonzero"/><path fill="#000000" d="M 46.058594 18.550781 C 45.710938 18.894531 45.710938 19.351562 46.058594 19.699219 C 46.402344 20.042969 46.859375 19.925781 47.207031 19.699219 C 52.488281 14.414062 52.488281 5.800781 47.207031 0.515625 C 46.859375 0.171875 46.402344 0.171875 46.058594 0.515625 C 45.710938 0.863281 45.710938 1.320312 46.058594 1.664062 C 50.652344 6.257812 50.652344 13.839844 46.058594 18.550781 Z M 46.058594 18.550781 " fill-opacity="1" fill-rule="nonzero"/><path fill="#000000" d="M 29.863281 17.746094 C 30.207031 18.089844 30.667969 18.089844 31.011719 17.746094 C 31.355469 17.402344 31.355469 16.941406 31.011719 16.597656 C 27.449219 13.035156 27.449219 7.179688 31.011719 3.617188 C 31.355469 3.273438 31.355469 2.8125 31.011719 2.46875 C 30.667969 2.125 30.207031 2.125 29.863281 2.46875 C 27.792969 4.535156 26.761719 7.179688 26.761719 10.050781 C 26.761719 13.035156 27.910156 15.675781 29.863281 17.746094 Z M 29.863281 17.746094 " fill-opacity="1" fill-rule="nonzero"/><path fill="#000000" d="M 31.816406 15.792969 C 32.160156 16.136719 32.617188 16.023438 32.964844 15.792969 C 33.308594 15.449219 33.308594 14.988281 32.964844 14.644531 C 30.4375 12.117188 30.4375 7.980469 32.964844 5.457031 C 33.308594 5.109375 33.308594 4.652344 32.964844 4.308594 C 32.617188 3.960938 32.160156 3.960938 31.816406 4.308594 C 28.714844 7.523438 28.714844 12.691406 31.816406 15.792969 Z M 31.816406 15.792969 " fill-opacity="1" fill-rule="nonzero"/><path fill="#000000" d="M 44.105469 16.597656 C 43.757812 16.941406 43.757812 17.402344 44.105469 17.746094 C 44.449219 18.089844 44.90625 18.089844 45.253906 17.746094 C 47.320312 15.675781 48.46875 13.035156 48.46875 10.050781 C 48.46875 7.0625 47.320312 4.421875 45.367188 2.355469 C 45.023438 2.011719 44.5625 2.011719 44.21875 2.355469 C 43.875 2.699219 43.875 3.160156 44.21875 3.503906 C 47.664062 7.179688 47.664062 13.035156 44.105469 16.597656 Z M 44.105469 16.597656 " fill-opacity="1" fill-rule="nonzero"/><path fill="#000000" d="M 29.058594 19.699219 C 29.402344 19.351562 29.402344 18.894531 29.058594 18.550781 C 24.347656 13.839844 24.347656 6.375 29.058594 1.664062 C 29.402344 1.320312 29.402344 0.863281 29.058594 0.515625 C 28.714844 0.171875 28.253906 0.171875 27.910156 0.515625 C 22.625 5.800781 22.625 14.414062 27.910156 19.699219 C 28.367188 20.042969 28.828125 19.925781 29.058594 19.699219 Z M 29.058594 19.699219 " fill-opacity="1" fill-rule="nonzero"/></svg>