<svg xmlns="http://www.w3.org/2000/svg" xmlns:xlink="http://www.w3.org/1999/xlink" width="100" zoomAndPan="magnify" viewBox="0 0 75 74.999997" height="100" preserveAspectRatio="xMidYMid meet" version="1.0"><defs><clipPath id="adc98397ae"><path d="M 0.960938 17.882812 L 74.410156 17.882812 L 74.410156 67.496094 L 0.960938 67.496094 Z M 0.960938 17.882812 " clip-rule="nonzero"/></clipPath><clipPath id="1e6409d28f"><path d="M 10 7.5 L 32 7.5 L 32 38 L 10 38 Z M 10 7.5 " clip-rule="nonzero"/></clipPath></defs><path fill="#000000" d="M 49.105469 30.65625 L 49.257812 32.113281 C 49.742188 32.066406 50.242188 32.039062 50.746094 32.039062 C 51.160156 32.039062 51.589844 32.054688 52.019531 32.089844 L 52.136719 30.632812 C 51.667969 30.597656 51.199219 30.578125 50.746094 30.578125 C 50.191406 30.578125 49.640625 30.605469 49.105469 30.65625 " fill-opacity="1" fill-rule="nonzero"/><path fill="#000000" d="M 43.324219 32.464844 L 44.085938 33.726562 C 44.871094 33.28125 45.710938 32.917969 46.574219 32.648438 L 46.117188 31.253906 C 45.148438 31.558594 44.207031 31.964844 43.324219 32.464844 " fill-opacity="1" fill-rule="nonzero"/><path fill="#000000" d="M 23.226562 52.421875 C 24.21875 52.226562 25.195312 51.953125 26.125 51.605469 L 25.589844 50.238281 C 24.734375 50.558594 23.835938 50.808594 22.925781 50.992188 L 23.226562 52.421875 " fill-opacity="1" fill-rule="nonzero"/><path fill="#000000" d="M 38.8125 36.375 L 39.992188 37.277344 C 40.585938 36.546875 41.21875 35.882812 41.875 35.308594 L 40.871094 34.222656 C 40.148438 34.855469 39.457031 35.578125 38.8125 36.375 " fill-opacity="1" fill-rule="nonzero"/><path fill="#000000" d="M 17.367188 51.261719 L 17.234375 52.714844 C 17.90625 52.773438 18.578125 52.804688 19.234375 52.804688 C 19.570312 52.804688 19.90625 52.796875 20.234375 52.78125 L 20.164062 51.320312 C 19.859375 51.335938 19.542969 51.34375 19.234375 51.34375 C 18.625 51.34375 17.996094 51.316406 17.367188 51.261719 " fill-opacity="1" fill-rule="nonzero"/><path fill="#000000" d="M 30.363281 47.523438 C 29.636719 48.101562 28.871094 48.625 28.085938 49.070312 L 28.847656 50.332031 C 29.699219 49.84375 30.53125 49.28125 31.316406 48.652344 L 30.363281 47.523438 " fill-opacity="1" fill-rule="nonzero"/><path fill="#000000" d="M 34.175781 43.546875 C 33.609375 44.300781 33.011719 45.011719 32.394531 45.660156 L 33.5 46.652344 C 34.15625 45.964844 34.792969 45.210938 35.390625 44.410156 L 34.175781 43.546875 " fill-opacity="1" fill-rule="nonzero"/><path fill="#000000" d="M 11.402344 51.53125 C 12.359375 51.832031 13.328125 52.085938 14.277344 52.28125 L 14.589844 50.851562 C 13.691406 50.667969 12.773438 50.429688 11.867188 50.140625 L 11.402344 51.53125 " fill-opacity="1" fill-rule="nonzero"/><path fill="#000000" d="M 60.117188 34.277344 C 60.953125 34.644531 61.808594 35.0625 62.664062 35.515625 L 63.382812 34.230469 C 62.496094 33.761719 61.605469 33.328125 60.738281 32.945312 L 60.117188 34.277344 " fill-opacity="1" fill-rule="nonzero"/><path fill="#000000" d="M 54.777344 32.5 C 55.65625 32.691406 56.566406 32.945312 57.488281 33.253906 L 57.980469 31.871094 C 57.007812 31.542969 56.039062 31.277344 55.105469 31.074219 L 54.777344 32.5 " fill-opacity="1" fill-rule="nonzero"/><g clip-path="url(#adc98397ae)"><path fill="#000000" d="M 55.589844 46.695312 L 54.785156 46.746094 L 54.191406 47.289062 L 44.183594 56.480469 L 34.886719 28.625 L 44.777344 20.222656 L 58.6875 20.742188 L 66.011719 35.746094 C 65.984375 35.726562 65.953125 35.707031 65.925781 35.691406 L 65.121094 36.925781 C 65.847656 37.371094 66.570312 37.847656 67.277344 38.339844 L 70.882812 45.730469 Z M 60.136719 18.53125 L 43.976562 17.929688 L 33.179688 27.101562 L 30.511719 26.632812 C 30.164062 27.308594 29.78125 28.007812 29.367188 28.730469 L 32.722656 29.320312 L 36.34375 40.171875 C 36.140625 40.539062 35.933594 40.902344 35.722656 41.25 L 36.9375 41.945312 L 42.070312 57.320312 L 26.535156 56.613281 L 25.867188 56.582031 L 25.285156 56.921875 L 12.953125 64.105469 L 8.671875 50.386719 L 9.222656 49.164062 C 8.816406 48.988281 8.449219 48.820312 8.132812 48.671875 L 3.640625 34.285156 L 12.046875 28.882812 C 11.652344 28.199219 11.285156 27.535156 10.949219 26.894531 L 0.960938 33.316406 L 11.632812 67.496094 L 26.433594 58.875 L 44.054688 59.675781 L 55.730469 48.953125 L 74.410156 47.773438 L 60.136719 18.53125 " fill-opacity="1" fill-rule="nonzero"/></g><g clip-path="url(#1e6409d28f)"><path fill="#000000" d="M 14.972656 17.242188 C 14.972656 14.113281 17.519531 11.578125 20.664062 11.578125 C 23.804688 11.578125 26.351562 14.113281 26.351562 17.242188 C 26.351562 20.371094 23.804688 22.90625 20.664062 22.90625 C 17.519531 22.90625 14.972656 20.371094 14.972656 17.242188 Z M 31.101562 17.890625 C 31.101562 12.152344 26.429688 7.5 20.664062 7.5 C 14.898438 7.5 10.222656 12.152344 10.222656 17.890625 C 10.222656 24.597656 20.664062 37.699219 20.664062 37.699219 C 20.664062 37.699219 31.101562 24.597656 31.101562 17.890625 " fill-opacity="1" fill-rule="nonzero"/></g></svg>