<svg xmlns="http://www.w3.org/2000/svg" xmlns:xlink="http://www.w3.org/1999/xlink" width="100" zoomAndPan="magnify" viewBox="0 0 75 74.999997" height="100" preserveAspectRatio="xMidYMid meet" version="1.0"><defs><clipPath id="39eadf6049"><path d="M 0 4.117188 L 58.972656 4.117188 L 58.972656 63.09375 L 0 63.09375 Z M 0 4.117188 " clip-rule="nonzero"/></clipPath><clipPath id="471b2884de"><path d="M 39.503906 35.382812 L 74.660156 35.382812 L 74.660156 70.539062 L 39.503906 70.539062 Z M 39.503906 35.382812 " clip-rule="nonzero"/></clipPath></defs><g clip-path="url(#39eadf6049)"><path fill="#000309" d="M 58.976562 33.605469 C 58.976562 34.574219 58.929688 35.535156 58.832031 36.496094 C 58.738281 37.457031 58.597656 38.414062 58.410156 39.359375 C 58.21875 40.304688 57.984375 41.242188 57.707031 42.167969 C 57.425781 43.089844 57.101562 44 56.730469 44.890625 C 56.359375 45.785156 55.949219 46.65625 55.492188 47.507812 C 55.039062 48.359375 54.542969 49.1875 54.003906 49.988281 C 53.46875 50.792969 52.894531 51.566406 52.28125 52.3125 C 51.667969 53.058594 51.023438 53.773438 50.339844 54.457031 C 49.65625 55.140625 48.941406 55.789062 48.195312 56.402344 C 47.449219 57.011719 46.671875 57.589844 45.871094 58.125 C 45.066406 58.660156 44.238281 59.15625 43.386719 59.613281 C 42.535156 60.066406 41.664062 60.480469 40.773438 60.851562 C 39.878906 61.21875 38.972656 61.542969 38.046875 61.824219 C 37.125 62.105469 36.1875 62.339844 35.242188 62.527344 C 34.292969 62.714844 33.339844 62.859375 32.378906 62.953125 C 31.417969 63.046875 30.453125 63.09375 29.488281 63.09375 C 28.523438 63.09375 27.558594 63.046875 26.597656 62.953125 C 25.636719 62.859375 24.683594 62.714844 23.734375 62.527344 C 22.789062 62.339844 21.851562 62.105469 20.929688 61.824219 C 20.003906 61.542969 19.09375 61.21875 18.203125 60.851562 C 17.3125 60.480469 16.4375 60.066406 15.585938 59.613281 C 14.734375 59.15625 13.910156 58.660156 13.105469 58.125 C 12.300781 57.589844 11.527344 57.011719 10.78125 56.402344 C 10.035156 55.789062 9.320312 55.140625 8.636719 54.457031 C 7.953125 53.773438 7.304688 53.058594 6.695312 52.3125 C 6.082031 51.566406 5.507812 50.792969 4.96875 49.988281 C 4.433594 49.1875 3.9375 48.359375 3.480469 47.507812 C 3.027344 46.65625 2.613281 45.785156 2.246094 44.890625 C 1.875 44 1.550781 43.089844 1.269531 42.167969 C 0.988281 41.242188 0.753906 40.304688 0.566406 39.359375 C 0.378906 38.414062 0.238281 37.457031 0.140625 36.496094 C 0.046875 35.535156 0 34.574219 0 33.605469 C 0 32.640625 0.046875 31.675781 0.140625 30.714844 C 0.238281 29.753906 0.378906 28.800781 0.566406 27.855469 C 0.753906 26.90625 0.988281 25.972656 1.269531 25.046875 C 1.550781 24.121094 1.875 23.214844 2.246094 22.324219 C 2.613281 21.429688 3.027344 20.558594 3.480469 19.707031 C 3.9375 18.855469 4.433594 18.027344 4.96875 17.222656 C 5.507812 16.421875 6.082031 15.648438 6.695312 14.898438 C 7.304688 14.152344 7.953125 13.4375 8.636719 12.753906 C 9.320312 12.074219 10.035156 11.425781 10.78125 10.8125 C 11.527344 10.199219 12.300781 9.625 13.105469 9.089844 C 13.910156 8.550781 14.734375 8.054688 15.585938 7.601562 C 16.4375 7.144531 17.3125 6.734375 18.203125 6.363281 C 19.09375 5.996094 20.003906 5.667969 20.929688 5.390625 C 21.851562 5.109375 22.789062 4.875 23.734375 4.6875 C 24.683594 4.496094 25.636719 4.355469 26.597656 4.261719 C 27.558594 4.167969 28.523438 4.117188 29.488281 4.117188 C 30.453125 4.117188 31.417969 4.167969 32.378906 4.261719 C 33.339844 4.355469 34.292969 4.496094 35.242188 4.6875 C 36.1875 4.875 37.125 5.109375 38.046875 5.390625 C 38.972656 5.667969 39.878906 5.996094 40.773438 6.363281 C 41.664062 6.734375 42.535156 7.144531 43.386719 7.601562 C 44.238281 8.054688 45.066406 8.550781 45.871094 9.089844 C 46.671875 9.625 47.449219 10.199219 48.195312 10.8125 C 48.941406 11.425781 49.65625 12.074219 50.339844 12.753906 C 51.023438 13.4375 51.667969 14.152344 52.28125 14.898438 C 52.894531 15.648438 53.46875 16.421875 54.003906 17.222656 C 54.542969 18.027344 55.039062 18.855469 55.492188 19.707031 C 55.949219 20.558594 56.359375 21.429688 56.730469 22.324219 C 57.101562 23.214844 57.425781 24.121094 57.707031 25.046875 C 57.984375 25.972656 58.21875 26.90625 58.410156 27.855469 C 58.597656 28.800781 58.738281 29.753906 58.832031 30.714844 C 58.929688 31.675781 58.976562 32.640625 58.976562 33.605469 Z M 58.976562 33.605469 " fill-opacity="1" fill-rule="nonzero"/></g><path fill="#ffffff" d="M 56.058594 33.605469 C 56.058594 34.476562 56.015625 35.34375 55.933594 36.210938 C 55.847656 37.078125 55.71875 37.9375 55.550781 38.789062 C 55.378906 39.644531 55.167969 40.488281 54.914062 41.320312 C 54.664062 42.152344 54.371094 42.972656 54.035156 43.777344 C 53.703125 44.578125 53.332031 45.367188 52.921875 46.132812 C 52.511719 46.898438 52.066406 47.644531 51.582031 48.371094 C 51.097656 49.09375 50.582031 49.792969 50.027344 50.464844 C 49.476562 51.136719 48.890625 51.78125 48.277344 52.394531 C 47.660156 53.011719 47.015625 53.59375 46.34375 54.148438 C 45.671875 54.699219 44.972656 55.21875 44.25 55.699219 C 43.527344 56.183594 42.78125 56.632812 42.015625 57.042969 C 41.246094 57.453125 40.460938 57.824219 39.65625 58.15625 C 38.851562 58.488281 38.035156 58.78125 37.203125 59.035156 C 36.367188 59.289062 35.523438 59.5 34.671875 59.667969 C 33.816406 59.839844 32.957031 59.964844 32.09375 60.050781 C 31.226562 60.136719 30.359375 60.179688 29.488281 60.179688 C 28.617188 60.179688 27.75 60.136719 26.882812 60.050781 C 26.015625 59.964844 25.15625 59.839844 24.304688 59.667969 C 23.449219 59.5 22.605469 59.289062 21.773438 59.035156 C 20.941406 58.78125 20.125 58.488281 19.320312 58.15625 C 18.515625 57.824219 17.730469 57.453125 16.960938 57.042969 C 16.195312 56.632812 15.449219 56.183594 14.726562 55.699219 C 14 55.21875 13.304688 54.699219 12.628906 54.148438 C 11.957031 53.59375 11.3125 53.011719 10.699219 52.394531 C 10.082031 51.78125 9.5 51.136719 8.949219 50.464844 C 8.394531 49.792969 7.878906 49.09375 7.394531 48.371094 C 6.910156 47.644531 6.464844 46.898438 6.054688 46.132812 C 5.644531 45.367188 5.273438 44.578125 4.9375 43.777344 C 4.605469 42.972656 4.3125 42.152344 4.058594 41.320312 C 3.808594 40.488281 3.597656 39.644531 3.425781 38.789062 C 3.257812 37.9375 3.128906 37.078125 3.042969 36.210938 C 2.957031 35.34375 2.914062 34.476562 2.914062 33.605469 C 2.914062 32.738281 2.957031 31.867188 3.042969 31.003906 C 3.128906 30.136719 3.257812 29.277344 3.425781 28.421875 C 3.597656 27.570312 3.808594 26.726562 4.058594 25.894531 C 4.3125 25.0625 4.605469 24.242188 4.9375 23.4375 C 5.273438 22.632812 5.644531 21.847656 6.054688 21.082031 C 6.464844 20.3125 6.910156 19.566406 7.394531 18.84375 C 7.878906 18.121094 8.394531 17.421875 8.949219 16.75 C 9.5 16.078125 10.082031 15.433594 10.699219 14.816406 C 11.3125 14.203125 11.957031 13.617188 12.628906 13.066406 C 13.304688 12.515625 14 11.996094 14.726562 11.511719 C 15.449219 11.03125 16.195312 10.582031 16.960938 10.171875 C 17.730469 9.761719 18.515625 9.390625 19.320312 9.058594 C 20.125 8.722656 20.941406 8.433594 21.773438 8.179688 C 22.605469 7.925781 23.449219 7.714844 24.304688 7.546875 C 25.15625 7.375 26.015625 7.25 26.882812 7.164062 C 27.75 7.078125 28.617188 7.035156 29.488281 7.035156 C 30.359375 7.035156 31.226562 7.078125 32.09375 7.164062 C 32.957031 7.25 33.816406 7.375 34.671875 7.546875 C 35.523438 7.714844 36.367188 7.925781 37.203125 8.179688 C 38.035156 8.433594 38.851562 8.722656 39.65625 9.058594 C 40.460938 9.390625 41.246094 9.761719 42.015625 10.171875 C 42.78125 10.582031 43.527344 11.03125 44.25 11.511719 C 44.972656 11.996094 45.671875 12.515625 46.34375 13.066406 C 47.015625 13.617188 47.660156 14.203125 48.277344 14.816406 C 48.890625 15.433594 49.476562 16.078125 50.027344 16.75 C 50.582031 17.421875 51.097656 18.121094 51.582031 18.84375 C 52.066406 19.566406 52.511719 20.3125 52.921875 21.082031 C 53.332031 21.847656 53.703125 22.632812 54.035156 23.4375 C 54.371094 24.242188 54.664062 25.0625 54.914062 25.894531 C 55.167969 26.726562 55.378906 27.570312 55.550781 28.421875 C 55.71875 29.277344 55.847656 30.136719 55.933594 31.003906 C 56.015625 31.867188 56.058594 32.738281 56.058594 33.605469 Z M 56.058594 33.605469 " fill-opacity="1" fill-rule="nonzero"/><path fill="#000309" d="M 15.609375 26.667969 L 5.082031 32.695312 C 5.070312 33 5.0625 33.300781 5.0625 33.605469 C 5.0625 41.933594 9.230469 49.285156 15.59375 53.695312 Z M 42.429688 25.046875 L 42.464844 12.914062 C 38.707031 10.550781 34.257812 9.183594 29.488281 9.183594 C 25.742188 9.183594 22.191406 10.027344 19.019531 11.535156 Z M 16.542969 42.164062 L 16.507812 54.300781 C 20.269531 56.664062 24.71875 58.03125 29.488281 58.03125 C 33.234375 58.03125 36.78125 57.1875 39.953125 55.679688 Z M 28.535156 18.117188 L 5.140625 31.652344 C 5.816406 23.132812 10.863281 15.84375 18.039062 12.027344 Z M 30.441406 49.09375 L 53.835938 35.5625 C 53.160156 44.082031 48.113281 51.371094 40.9375 55.183594 Z M 43.367188 40.546875 L 53.894531 34.515625 C 53.90625 34.214844 53.910156 33.910156 53.910156 33.605469 C 53.910156 25.28125 49.746094 17.929688 43.382812 13.519531 Z M 43.367188 40.546875 " fill-opacity="1" fill-rule="evenodd"/><path fill="#000309" d="M 26.15625 22.15625 C 32.480469 20.320312 39.097656 23.953125 40.9375 30.277344 C 42.777344 36.597656 39.140625 43.214844 32.816406 45.054688 C 26.492188 46.894531 19.875 43.261719 18.039062 36.9375 C 16.199219 30.613281 19.832031 23.996094 26.15625 22.15625 Z M 26.15625 22.15625 " fill-opacity="1" fill-rule="evenodd"/><path fill="#ffffff" d="M 21.402344 31.117188 C 21.378906 31.675781 20.917969 32.117188 20.355469 32.113281 C 19.78125 32.109375 19.269531 31.617188 19.320312 31.03125 C 19.554688 28.402344 21.617188 26.003906 23.914062 24.847656 C 24.4375 24.582031 25.078125 24.847656 25.308594 25.378906 C 25.535156 25.898438 25.285156 26.488281 24.785156 26.742188 C 23.289062 27.5 21.734375 29.457031 21.402344 31.117188 Z M 21.402344 31.117188 " fill-opacity="1" fill-rule="evenodd"/><path fill="#ffffff" d="M 28.34375 24.269531 C 28.34375 24.410156 28.316406 24.542969 28.261719 24.671875 C 28.210938 24.800781 28.132812 24.917969 28.035156 25.015625 C 27.933594 25.113281 27.820312 25.191406 27.691406 25.246094 C 27.5625 25.296875 27.425781 25.324219 27.285156 25.324219 C 27.148438 25.324219 27.011719 25.296875 26.882812 25.246094 C 26.753906 25.191406 26.640625 25.113281 26.539062 25.015625 C 26.441406 24.917969 26.363281 24.800781 26.3125 24.671875 C 26.257812 24.542969 26.230469 24.410156 26.230469 24.269531 C 26.230469 24.128906 26.257812 23.992188 26.3125 23.863281 C 26.363281 23.734375 26.441406 23.621094 26.539062 23.523438 C 26.640625 23.421875 26.753906 23.347656 26.882812 23.292969 C 27.011719 23.238281 27.148438 23.210938 27.285156 23.210938 C 27.425781 23.210938 27.5625 23.238281 27.691406 23.292969 C 27.820312 23.347656 27.933594 23.421875 28.035156 23.523438 C 28.132812 23.621094 28.210938 23.734375 28.261719 23.863281 C 28.316406 23.992188 28.34375 24.128906 28.34375 24.269531 Z M 28.34375 24.269531 " fill-opacity="1" fill-rule="nonzero"/><g clip-path="url(#471b2884de)"><path fill="#000309" d="M 74.660156 52.964844 C 74.660156 53.539062 74.632812 54.113281 74.578125 54.6875 C 74.519531 55.257812 74.4375 55.828125 74.324219 56.394531 C 74.210938 56.957031 74.070312 57.515625 73.90625 58.066406 C 73.738281 58.617188 73.542969 59.160156 73.324219 59.691406 C 73.101562 60.222656 72.855469 60.742188 72.585938 61.25 C 72.3125 61.757812 72.019531 62.25 71.699219 62.730469 C 71.378906 63.207031 71.035156 63.671875 70.671875 64.113281 C 70.304688 64.558594 69.917969 64.984375 69.511719 65.394531 C 69.105469 65.800781 68.679688 66.1875 68.234375 66.550781 C 67.789062 66.917969 67.328125 67.257812 66.847656 67.578125 C 66.371094 67.898438 65.875 68.195312 65.367188 68.464844 C 64.859375 68.738281 64.339844 68.984375 63.808594 69.203125 C 63.277344 69.425781 62.734375 69.617188 62.183594 69.785156 C 61.632812 69.953125 61.078125 70.09375 60.511719 70.203125 C 59.945312 70.316406 59.378906 70.402344 58.804688 70.457031 C 58.234375 70.515625 57.65625 70.542969 57.082031 70.542969 C 56.507812 70.542969 55.933594 70.515625 55.359375 70.457031 C 54.785156 70.402344 54.21875 70.316406 53.652344 70.203125 C 53.089844 70.09375 52.53125 69.953125 51.980469 69.785156 C 51.429688 69.617188 50.886719 69.425781 50.355469 69.203125 C 49.824219 68.984375 49.304688 68.738281 48.796875 68.464844 C 48.289062 68.195312 47.792969 67.898438 47.316406 67.578125 C 46.835938 67.257812 46.375 66.917969 45.929688 66.550781 C 45.484375 66.1875 45.058594 65.800781 44.652344 65.394531 C 44.246094 64.984375 43.859375 64.558594 43.492188 64.113281 C 43.128906 63.671875 42.785156 63.207031 42.464844 62.730469 C 42.144531 62.25 41.851562 61.757812 41.578125 61.25 C 41.308594 60.742188 41.0625 60.222656 40.839844 59.691406 C 40.621094 59.160156 40.425781 58.617188 40.261719 58.066406 C 40.09375 57.515625 39.953125 56.957031 39.839844 56.394531 C 39.730469 55.828125 39.644531 55.257812 39.585938 54.6875 C 39.53125 54.113281 39.503906 53.539062 39.503906 52.964844 C 39.503906 52.386719 39.53125 51.8125 39.585938 51.238281 C 39.644531 50.667969 39.730469 50.097656 39.839844 49.535156 C 39.953125 48.96875 40.09375 48.410156 40.261719 47.859375 C 40.425781 47.308594 40.621094 46.769531 40.839844 46.234375 C 41.0625 45.703125 41.308594 45.183594 41.578125 44.675781 C 41.851562 44.167969 42.144531 43.675781 42.464844 43.195312 C 42.785156 42.71875 43.128906 42.257812 43.492188 41.8125 C 43.859375 41.367188 44.246094 40.941406 44.652344 40.53125 C 45.058594 40.125 45.484375 39.738281 45.929688 39.375 C 46.375 39.007812 46.835938 38.667969 47.316406 38.347656 C 47.792969 38.027344 48.289062 37.730469 48.796875 37.460938 C 49.304688 37.1875 49.824219 36.941406 50.355469 36.722656 C 50.886719 36.5 51.429688 36.308594 51.980469 36.140625 C 52.53125 35.972656 53.089844 35.835938 53.652344 35.722656 C 54.21875 35.609375 54.785156 35.523438 55.359375 35.46875 C 55.933594 35.414062 56.507812 35.382812 57.082031 35.382812 C 57.65625 35.382812 58.234375 35.414062 58.804688 35.46875 C 59.378906 35.523438 59.945312 35.609375 60.511719 35.722656 C 61.078125 35.835938 61.632812 35.972656 62.183594 36.140625 C 62.734375 36.308594 63.277344 36.5 63.808594 36.722656 C 64.339844 36.941406 64.859375 37.1875 65.367188 37.460938 C 65.875 37.730469 66.371094 38.027344 66.847656 38.347656 C 67.328125 38.667969 67.789062 39.007812 68.234375 39.375 C 68.679688 39.738281 69.105469 40.125 69.511719 40.53125 C 69.917969 40.941406 70.304688 41.367188 70.671875 41.8125 C 71.035156 42.257812 71.378906 42.71875 71.699219 43.195312 C 72.019531 43.675781 72.3125 44.167969 72.585938 44.675781 C 72.855469 45.183594 73.101562 45.703125 73.324219 46.234375 C 73.542969 46.769531 73.738281 47.308594 73.90625 47.859375 C 74.070312 48.410156 74.210938 48.96875 74.324219 49.535156 C 74.4375 50.097656 74.519531 50.667969 74.578125 51.238281 C 74.632812 51.8125 74.660156 52.386719 74.660156 52.964844 Z M 74.660156 52.964844 " fill-opacity="1" fill-rule="nonzero"/></g><path fill="#ffffff" d="M 72.921875 52.964844 C 72.921875 53.480469 72.898438 54 72.847656 54.515625 C 72.796875 55.03125 72.71875 55.542969 72.617188 56.054688 C 72.519531 56.5625 72.390625 57.066406 72.242188 57.5625 C 72.089844 58.058594 71.917969 58.546875 71.71875 59.023438 C 71.519531 59.503906 71.296875 59.972656 71.054688 60.429688 C 70.808594 60.886719 70.542969 61.332031 70.253906 61.765625 C 69.964844 62.195312 69.65625 62.613281 69.328125 63.011719 C 69 63.414062 68.652344 63.796875 68.285156 64.164062 C 67.917969 64.53125 67.53125 64.878906 67.132812 65.207031 C 66.730469 65.539062 66.316406 65.847656 65.882812 66.132812 C 65.453125 66.421875 65.007812 66.6875 64.550781 66.933594 C 64.09375 67.179688 63.625 67.398438 63.144531 67.597656 C 62.664062 67.796875 62.175781 67.972656 61.679688 68.121094 C 61.183594 68.273438 60.679688 68.398438 60.171875 68.5 C 59.664062 68.601562 59.152344 68.675781 58.636719 68.726562 C 58.117188 68.777344 57.601562 68.804688 57.082031 68.804688 C 56.5625 68.804688 56.046875 68.777344 55.53125 68.726562 C 55.011719 68.675781 54.5 68.601562 53.992188 68.5 C 53.484375 68.398438 52.980469 68.273438 52.484375 68.121094 C 51.988281 67.972656 51.5 67.796875 51.019531 67.597656 C 50.539062 67.398438 50.074219 67.179688 49.613281 66.933594 C 49.15625 66.6875 48.714844 66.421875 48.28125 66.132812 C 47.851562 65.847656 47.433594 65.539062 47.03125 65.207031 C 46.632812 64.878906 46.246094 64.53125 45.882812 64.164062 C 45.515625 63.796875 45.167969 63.414062 44.835938 63.011719 C 44.507812 62.613281 44.199219 62.195312 43.910156 61.765625 C 43.621094 61.332031 43.355469 60.886719 43.113281 60.429688 C 42.867188 59.972656 42.644531 59.503906 42.445312 59.023438 C 42.25 58.546875 42.074219 58.058594 41.921875 57.5625 C 41.773438 57.066406 41.648438 56.5625 41.546875 56.054688 C 41.445312 55.542969 41.367188 55.03125 41.316406 54.515625 C 41.265625 54 41.242188 53.480469 41.242188 52.964844 C 41.242188 52.445312 41.265625 51.925781 41.316406 51.410156 C 41.367188 50.894531 41.445312 50.382812 41.546875 49.871094 C 41.648438 49.363281 41.773438 48.859375 41.921875 48.363281 C 42.074219 47.867188 42.25 47.378906 42.445312 46.902344 C 42.644531 46.421875 42.867188 45.953125 43.113281 45.496094 C 43.355469 45.039062 43.621094 44.59375 43.910156 44.164062 C 44.199219 43.730469 44.507812 43.316406 44.835938 42.914062 C 45.167969 42.511719 45.515625 42.128906 45.882812 41.761719 C 46.246094 41.394531 46.632812 41.046875 47.03125 40.71875 C 47.433594 40.390625 47.851562 40.082031 48.28125 39.792969 C 48.714844 39.503906 49.15625 39.238281 49.613281 38.992188 C 50.074219 38.75 50.539062 38.527344 51.019531 38.328125 C 51.5 38.128906 51.988281 37.953125 52.484375 37.804688 C 52.980469 37.652344 53.484375 37.527344 53.992188 37.425781 C 54.5 37.324219 55.011719 37.25 55.53125 37.199219 C 56.046875 37.148438 56.5625 37.121094 57.082031 37.121094 C 57.601562 37.121094 58.117188 37.148438 58.636719 37.199219 C 59.152344 37.25 59.664062 37.324219 60.171875 37.425781 C 60.679688 37.527344 61.183594 37.652344 61.679688 37.804688 C 62.175781 37.953125 62.664062 38.128906 63.144531 38.328125 C 63.625 38.527344 64.09375 38.75 64.550781 38.992188 C 65.007812 39.238281 65.453125 39.503906 65.882812 39.792969 C 66.316406 40.082031 66.730469 40.390625 67.132812 40.71875 C 67.53125 41.046875 67.917969 41.394531 68.285156 41.761719 C 68.652344 42.128906 69 42.511719 69.328125 42.914062 C 69.65625 43.316406 69.964844 43.730469 70.253906 44.164062 C 70.542969 44.59375 70.808594 45.039062 71.054688 45.496094 C 71.296875 45.953125 71.519531 46.421875 71.71875 46.902344 C 71.917969 47.378906 72.089844 47.867188 72.242188 48.363281 C 72.390625 48.859375 72.519531 49.363281 72.617188 49.871094 C 72.71875 50.382812 72.796875 50.894531 72.847656 51.410156 C 72.898438 51.925781 72.921875 52.445312 72.921875 52.964844 Z M 72.921875 52.964844 " fill-opacity="1" fill-rule="nonzero"/><path fill="#000309" d="M 48.808594 48.828125 L 42.53125 52.421875 C 42.527344 52.601562 42.523438 52.78125 42.523438 52.964844 C 42.523438 57.925781 45.007812 62.308594 48.800781 64.9375 Z M 64.796875 47.859375 L 64.820312 40.628906 C 62.578125 39.21875 59.925781 38.402344 57.082031 38.402344 C 54.847656 38.402344 52.734375 38.90625 50.84375 39.804688 Z M 49.367188 58.066406 L 49.34375 65.300781 C 51.585938 66.707031 54.238281 67.523438 57.082031 67.523438 C 59.316406 67.523438 61.429688 67.019531 63.320312 66.121094 Z M 56.515625 43.730469 L 42.566406 51.796875 C 42.96875 46.71875 45.980469 42.375 50.257812 40.097656 Z M 57.648438 62.195312 L 71.597656 54.128906 C 71.195312 59.207031 68.183594 63.554688 63.90625 65.828125 Z M 65.355469 57.097656 L 71.632812 53.503906 C 71.636719 53.324219 71.644531 53.144531 71.644531 52.964844 C 71.644531 48 69.160156 43.617188 65.367188 40.988281 Z M 65.355469 57.097656 " fill-opacity="1" fill-rule="evenodd"/><path fill="#000309" d="M 55.097656 46.136719 C 58.867188 45.042969 62.8125 47.207031 63.90625 50.976562 C 65.003906 54.746094 62.835938 58.691406 59.066406 59.789062 C 55.296875 60.882812 51.351562 58.71875 50.257812 54.949219 C 49.160156 51.179688 51.328125 47.234375 55.097656 46.136719 Z M 55.097656 46.136719 " fill-opacity="1" fill-rule="evenodd"/><path fill="#ffffff" d="M 52.261719 51.480469 C 52.25 51.8125 51.972656 52.074219 51.636719 52.074219 C 51.296875 52.070312 50.988281 51.777344 51.019531 51.425781 C 51.160156 49.859375 52.390625 48.429688 53.757812 47.742188 C 54.074219 47.582031 54.453125 47.742188 54.589844 48.058594 C 54.726562 48.367188 54.578125 48.71875 54.28125 48.871094 C 53.386719 49.324219 52.460938 50.488281 52.261719 51.480469 Z M 52.261719 51.480469 " fill-opacity="1" fill-rule="evenodd"/><path fill="#ffffff" d="M 56.398438 47.394531 C 56.398438 47.570312 56.339844 47.71875 56.214844 47.839844 C 56.09375 47.964844 55.945312 48.027344 55.769531 48.027344 C 55.597656 48.027344 55.449219 47.964844 55.324219 47.839844 C 55.203125 47.71875 55.140625 47.570312 55.140625 47.394531 C 55.140625 47.222656 55.203125 47.074219 55.324219 46.949219 C 55.449219 46.828125 55.597656 46.765625 55.769531 46.765625 C 55.945312 46.765625 56.09375 46.828125 56.214844 46.949219 C 56.339844 47.074219 56.398438 47.222656 56.398438 47.394531 Z M 56.398438 47.394531 " fill-opacity="1" fill-rule="nonzero"/></svg>