<svg xmlns="http://www.w3.org/2000/svg" xmlns:xlink="http://www.w3.org/1999/xlink" width="100" zoomAndPan="magnify" viewBox="0 0 75 74.999997" height="100" preserveAspectRatio="xMidYMid meet" version="1.0"><defs><clipPath id="ec01397bd2"><path d="M 4.785156 8.382812 L 74.535156 8.382812 L 74.535156 69.882812 L 4.785156 69.882812 Z M 4.785156 8.382812 " clip-rule="nonzero"/></clipPath></defs><g clip-path="url(#ec01397bd2)"><path fill="#000000" d="M 8.578125 40.140625 L 5.796875 40.140625 C 5.253906 40.140625 4.8125 39.699219 4.8125 39.160156 C 4.8125 38.617188 5.253906 38.179688 5.796875 38.179688 L 8.578125 38.179688 C 9.089844 24.035156 20.550781 12.644531 34.785156 12.144531 L 34.785156 9.378906 C 34.785156 8.835938 35.226562 8.398438 35.773438 8.398438 C 36.316406 8.398438 36.757812 8.835938 36.757812 9.378906 L 36.757812 12.144531 C 41.070312 12.296875 45.125 13.449219 48.703125 15.371094 L 49.691406 13.699219 C 49.964844 13.234375 50.570312 13.078125 51.039062 13.351562 C 51.507812 13.625 51.664062 14.226562 51.390625 14.691406 L 50.398438 16.363281 C 51.046875 16.777344 51.675781 17.214844 52.285156 17.675781 L 56.429688 10.539062 C 57 9.554688 57.984375 8.992188 59.125 8.992188 C 60.269531 8.992188 61.25 9.554688 61.820312 10.539062 L 73.964844 31.441406 C 74.539062 32.425781 74.539062 33.546875 73.964844 34.53125 C 73.394531 35.515625 72.417969 36.078125 71.273438 36.078125 L 62.808594 36.078125 C 62.886719 36.773438 62.941406 37.472656 62.964844 38.179688 L 65.746094 38.179688 C 66.292969 38.179688 66.730469 38.617188 66.730469 39.160156 C 66.730469 39.699219 66.292969 40.140625 65.746094 40.140625 L 62.964844 40.140625 C 62.457031 54.28125 50.992188 65.671875 36.757812 66.175781 L 36.757812 68.9375 C 36.757812 69.480469 36.316406 69.917969 35.773438 69.917969 C 35.226562 69.917969 34.785156 69.480469 34.785156 68.9375 L 34.785156 66.175781 C 20.550781 65.671875 9.089844 54.28125 8.578125 40.140625 Z M 34.785156 14.101562 C 21.640625 14.605469 11.058594 25.117188 10.550781 38.179688 L 15.777344 38.179688 C 16.277344 27.980469 24.519531 19.789062 34.785156 19.296875 Z M 47.703125 17.0625 C 44.421875 15.308594 40.703125 14.253906 36.757812 14.101562 L 36.757812 19.296875 C 39.742188 19.4375 42.550781 20.230469 45.054688 21.535156 Z M 51.289062 19.386719 C 50.679688 18.917969 50.050781 18.46875 49.402344 18.054688 L 37.496094 38.179688 L 60.992188 38.179688 C 60.964844 37.472656 60.90625 36.769531 60.820312 36.078125 L 46.976562 36.078125 C 45.832031 36.078125 44.855469 35.515625 44.285156 34.53125 C 43.714844 33.546875 43.714844 32.425781 44.285156 31.441406 Z M 46.976562 34.117188 L 71.273438 34.117188 C 71.691406 34.117188 72.050781 33.914062 72.257812 33.554688 L 72.257812 33.550781 C 72.46875 33.191406 72.46875 32.78125 72.257812 32.421875 L 60.113281 11.519531 C 59.902344 11.160156 59.542969 10.953125 59.125 10.953125 C 58.707031 10.953125 58.347656 11.160156 58.140625 11.519531 L 45.992188 32.421875 C 45.785156 32.78125 45.785156 33.191406 45.992188 33.554688 C 46.199219 33.914062 46.558594 34.117188 46.976562 34.117188 Z M 36.757812 64.214844 C 49.90625 63.710938 60.488281 53.199219 60.992188 40.140625 L 55.765625 40.140625 C 55.265625 50.335938 47.023438 58.527344 36.757812 59.023438 Z M 10.550781 40.140625 C 11.058594 53.199219 21.640625 63.710938 34.785156 64.214844 L 34.785156 59.023438 C 24.519531 58.527344 16.277344 50.335938 15.777344 40.140625 Z M 34.785156 21.257812 C 25.609375 21.746094 18.25 29.0625 17.753906 38.179688 L 22.175781 38.179688 C 22.660156 31.484375 28.046875 26.128906 34.785156 25.652344 Z M 44.054688 23.230469 C 41.847656 22.09375 39.375 21.398438 36.757812 21.257812 L 36.757812 25.652344 C 38.5625 25.777344 40.269531 26.257812 41.8125 27.015625 Z M 38.480469 32.648438 L 40.808594 28.710938 C 39.5625 28.117188 38.199219 27.738281 36.757812 27.617188 L 36.757812 32.183594 C 37.359375 32.265625 37.9375 32.425781 38.480469 32.648438 Z M 36.757812 35.558594 L 37.464844 34.359375 C 37.238281 34.28125 37 34.21875 36.757812 34.167969 Z M 40.792969 40.140625 L 36.757812 40.140625 L 36.757812 44.148438 C 38.792969 43.753906 40.394531 42.15625 40.792969 40.140625 Z M 47.390625 40.140625 L 42.792969 40.140625 C 42.355469 43.242188 39.882812 45.703125 36.757812 46.132812 L 36.757812 50.703125 C 42.40625 50.230469 46.917969 45.75 47.390625 40.140625 Z M 53.792969 40.140625 L 49.367188 40.140625 C 48.886719 46.832031 43.496094 52.1875 36.757812 52.667969 L 36.757812 57.058594 C 45.933594 56.570312 53.296875 49.253906 53.792969 40.140625 Z M 17.753906 40.140625 C 18.25 49.253906 25.609375 56.570312 34.785156 57.058594 L 34.785156 52.667969 C 28.046875 52.1875 22.660156 46.832031 22.175781 40.140625 Z M 34.785156 27.617188 C 29.136719 28.089844 24.628906 32.566406 24.15625 38.179688 L 28.753906 38.179688 C 29.1875 35.074219 31.660156 32.617188 34.785156 32.183594 Z M 34.785156 38.179688 L 34.785156 34.167969 C 32.753906 34.566406 31.148438 36.160156 30.75 38.179688 Z M 34.785156 44.148438 L 34.785156 40.140625 L 30.75 40.140625 C 31.148438 42.15625 32.753906 43.753906 34.785156 44.148438 Z M 34.785156 50.703125 L 34.785156 46.132812 C 31.660156 45.703125 29.1875 43.242188 28.753906 40.140625 L 24.15625 40.140625 C 24.628906 45.75 29.136719 50.230469 34.785156 50.703125 Z M 60.113281 26.8125 C 60.113281 27.355469 59.671875 27.792969 59.125 27.792969 C 58.582031 27.792969 58.140625 27.355469 58.140625 26.8125 L 58.140625 18.257812 C 58.140625 17.714844 58.582031 17.277344 59.125 17.277344 C 59.671875 17.277344 60.113281 17.714844 60.113281 18.257812 Z M 59.125 31.140625 C 58.507812 31.140625 58.003906 30.636719 58.003906 30.023438 C 58.003906 29.410156 58.507812 28.910156 59.125 28.910156 C 59.742188 28.910156 60.246094 29.410156 60.246094 30.023438 C 60.246094 30.636719 59.742188 31.140625 59.125 31.140625 Z M 59.125 31.140625 " fill-opacity="1" fill-rule="evenodd"/></g></svg>