<svg xmlns="http://www.w3.org/2000/svg" xmlns:xlink="http://www.w3.org/1999/xlink" width="100" zoomAndPan="magnify" viewBox="0 0 75 74.999997" height="100" preserveAspectRatio="xMidYMid meet" version="1.0"><defs><clipPath id="bd036d9b0b"><path d="M 4 38 L 75 38 L 75 61.734375 L 4 61.734375 Z M 4 38 " clip-rule="nonzero"/></clipPath></defs><path fill="#201e1b" d="M 11.570312 37.699219 L 29.199219 41.214844 L 64.101562 24.972656 L 38.523438 24.972656 L 11.292969 37.65625 C 11.371094 37.65625 11.449219 37.65625 11.570312 37.699219 Z M 11.570312 37.699219 " fill-opacity="1" fill-rule="evenodd"/><g clip-path="url(#bd036d9b0b)"><path fill="#201e1b" d="M 70.203125 50.578125 L 11.332031 38.84375 C 8.421875 38.289062 5.585938 40.1875 4.996094 43.109375 C 4.445312 45.996094 6.335938 48.839844 9.246094 49.433594 L 68.117188 61.171875 C 71.027344 61.722656 73.859375 59.828125 74.410156 56.902344 C 75.003906 54.019531 73.113281 51.171875 70.203125 50.578125 Z M 9.996094 45.679688 C 9.207031 45.523438 8.65625 44.730469 8.816406 43.941406 C 8.972656 43.109375 9.757812 42.597656 10.585938 42.753906 C 11.371094 42.914062 11.882812 43.703125 11.726562 44.492188 C 11.570312 45.324219 10.78125 45.835938 9.996094 45.679688 Z M 13.773438 42.835938 C 13.695312 43.191406 13.378906 43.425781 13.023438 43.347656 C 12.671875 43.269531 12.433594 42.953125 12.511719 42.597656 L 12.867188 40.699219 C 12.945312 40.34375 13.261719 40.148438 13.617188 40.1875 C 13.96875 40.265625 14.207031 40.621094 14.167969 40.976562 Z M 16.527344 45.679688 C 16.488281 46.035156 16.132812 46.273438 15.78125 46.195312 C 15.425781 46.113281 15.1875 45.757812 15.269531 45.402344 C 15.542969 44.058594 15.820312 42.714844 16.054688 41.371094 C 16.132812 41.015625 16.488281 40.78125 16.84375 40.820312 C 17.195312 40.898438 17.433594 41.253906 17.355469 41.609375 C 17.078125 42.953125 16.800781 44.335938 16.527344 45.679688 Z M 20.1875 44.097656 C 20.109375 44.453125 19.753906 44.691406 19.398438 44.613281 C 19.046875 44.574219 18.847656 44.21875 18.886719 43.863281 C 19.164062 42.519531 19.007812 43.347656 19.28125 42.003906 C 19.320312 41.648438 19.675781 41.410156 20.03125 41.492188 C 20.382812 41.53125 20.621094 41.886719 20.539062 42.242188 C 20.265625 43.585938 20.460938 42.753906 20.1875 44.097656 Z M 22.941406 46.945312 C 22.863281 47.300781 22.546875 47.539062 22.195312 47.457031 C 21.839844 47.417969 21.601562 47.0625 21.683594 46.707031 C 21.917969 45.324219 22.195312 43.980469 22.46875 42.636719 C 22.546875 42.28125 22.902344 42.042969 23.257812 42.125 C 23.609375 42.164062 23.808594 42.519531 23.769531 42.875 C 23.492188 44.257812 23.21875 45.601562 22.941406 46.945312 Z M 26.601562 45.402344 C 26.523438 45.757812 26.167969 45.957031 25.8125 45.917969 C 25.460938 45.835938 25.222656 45.480469 25.300781 45.125 C 25.578125 43.78125 25.421875 44.613281 25.65625 43.269531 C 25.734375 42.914062 26.089844 42.675781 26.445312 42.753906 C 26.796875 42.835938 27.035156 43.152344 26.957031 43.507812 C 26.679688 44.890625 26.875 44.019531 26.601562 45.402344 Z M 29.355469 48.207031 C 29.277344 48.5625 28.921875 48.800781 28.570312 48.761719 C 28.253906 48.683594 28.019531 48.328125 28.058594 47.972656 C 28.332031 46.628906 28.609375 45.246094 28.882812 43.902344 C 28.960938 43.546875 29.277344 43.308594 29.632812 43.386719 C 29.984375 43.464844 30.222656 43.824219 30.144531 44.179688 C 29.90625 45.523438 29.632812 46.867188 29.355469 48.207031 Z M 32.976562 46.667969 C 32.9375 47.023438 32.582031 47.261719 32.226562 47.179688 C 31.875 47.101562 31.636719 46.746094 31.714844 46.390625 C 31.992188 45.046875 31.796875 45.917969 32.070312 44.535156 C 32.148438 44.179688 32.503906 43.941406 32.859375 44.019531 C 33.210938 44.097656 33.449219 44.453125 33.371094 44.808594 C 33.09375 46.152344 33.25 45.324219 32.976562 46.667969 Z M 35.769531 49.511719 C 35.691406 49.867188 35.335938 50.105469 34.984375 50.027344 C 34.628906 49.949219 34.390625 49.59375 34.472656 49.234375 C 34.746094 47.894531 35.023438 46.550781 35.296875 45.167969 C 35.335938 44.808594 35.691406 44.574219 36.046875 44.652344 C 36.398438 44.730469 36.636719 45.085938 36.554688 45.441406 C 36.28125 46.785156 36.046875 48.128906 35.769531 49.511719 Z M 39.390625 47.933594 C 39.3125 48.289062 38.996094 48.523438 38.640625 48.445312 C 38.289062 48.367188 38.050781 48.050781 38.128906 47.695312 C 38.367188 46.3125 38.210938 47.179688 38.484375 45.796875 C 38.5625 45.480469 38.917969 45.246094 39.273438 45.285156 C 39.585938 45.363281 39.824219 45.71875 39.785156 46.074219 C 39.507812 47.417969 39.664062 46.589844 39.390625 47.933594 Z M 42.183594 50.777344 C 42.105469 51.132812 41.75 51.371094 41.398438 51.292969 C 41.042969 51.210938 40.804688 50.894531 40.886719 50.539062 C 41.160156 49.15625 41.4375 47.8125 41.671875 46.46875 C 41.75 46.113281 42.105469 45.878906 42.460938 45.957031 C 42.8125 45.996094 43.050781 46.351562 42.972656 46.707031 C 42.695312 48.050781 42.417969 49.433594 42.183594 50.777344 Z M 45.804688 49.195312 C 45.726562 49.550781 45.371094 49.789062 45.015625 49.710938 C 44.703125 49.671875 44.464844 49.316406 44.503906 48.960938 C 44.78125 47.617188 44.625 48.445312 44.898438 47.101562 C 44.976562 46.746094 45.292969 46.507812 45.648438 46.589844 C 46 46.628906 46.238281 46.984375 46.15625 47.339844 C 45.921875 48.722656 46.078125 47.851562 45.804688 49.195312 Z M 48.558594 52.042969 C 48.519531 52.398438 48.164062 52.632812 47.8125 52.554688 C 47.457031 52.515625 47.21875 52.160156 47.300781 51.804688 C 47.574219 50.460938 47.8125 49.078125 48.085938 47.734375 C 48.164062 47.378906 48.519531 47.140625 48.875 47.222656 C 49.226562 47.300781 49.464844 47.617188 49.386719 47.972656 C 49.109375 49.355469 48.832031 50.699219 48.558594 52.042969 Z M 52.21875 50.5 C 52.140625 50.855469 51.785156 51.09375 51.429688 51.015625 C 51.078125 50.9375 50.839844 50.578125 50.917969 50.222656 C 51.195312 48.878906 51.039062 49.710938 51.3125 48.367188 C 51.351562 48.011719 51.707031 47.773438 52.0625 47.851562 C 52.414062 47.933594 52.652344 48.289062 52.570312 48.644531 C 52.296875 49.988281 52.492188 49.117188 52.21875 50.5 Z M 54.972656 53.347656 C 54.894531 53.703125 54.578125 53.898438 54.226562 53.859375 C 53.871094 53.78125 53.636719 53.425781 53.675781 53.070312 C 53.949219 51.726562 54.226562 50.34375 54.5 49 C 54.578125 48.644531 54.894531 48.40625 55.246094 48.484375 C 55.601562 48.5625 55.839844 48.921875 55.800781 49.277344 C 55.523438 50.621094 55.246094 51.964844 54.972656 53.347656 Z M 58.632812 51.765625 C 58.554688 52.121094 58.199219 52.359375 57.84375 52.277344 C 57.492188 52.199219 57.253906 51.84375 57.332031 51.527344 C 57.609375 50.144531 57.414062 51.015625 57.6875 49.632812 C 57.765625 49.277344 58.121094 49.039062 58.476562 49.117188 C 58.828125 49.195312 59.066406 49.550781 58.988281 49.90625 C 58.710938 51.25 58.867188 50.421875 58.632812 51.765625 Z M 61.386719 54.609375 C 61.308594 54.964844 60.953125 55.203125 60.601562 55.125 C 60.246094 55.046875 60.007812 54.6875 60.089844 54.332031 C 60.363281 52.992188 60.640625 51.648438 60.914062 50.261719 C 60.953125 49.90625 61.308594 49.710938 61.664062 49.75 C 62.015625 49.828125 62.253906 50.183594 62.175781 50.539062 C 61.898438 51.882812 61.664062 53.265625 61.386719 54.609375 Z M 65.007812 53.03125 C 64.96875 53.386719 64.613281 53.621094 64.257812 53.542969 C 63.90625 53.503906 63.667969 53.148438 63.746094 52.792969 C 64.023438 51.410156 63.828125 52.277344 64.101562 50.933594 C 64.179688 50.578125 64.535156 50.34375 64.890625 50.421875 C 65.242188 50.460938 65.441406 50.816406 65.402344 51.171875 C 65.125 52.515625 65.28125 51.6875 65.007812 53.03125 Z M 67.800781 55.875 C 67.722656 56.230469 67.367188 56.46875 67.015625 56.390625 C 66.660156 56.308594 66.421875 55.992188 66.503906 55.636719 L 67.289062 51.566406 C 67.367188 51.210938 67.722656 50.976562 68.078125 51.054688 C 68.429688 51.09375 68.667969 51.449219 68.589844 51.804688 Z M 67.800781 55.875 " fill-opacity="1" fill-rule="evenodd"/></g><path fill="#201e1b" d="M 70.753906 18.414062 C 70.753906 15.410156 68.351562 13 65.402344 13 L 2.398438 13 C 1.0625 13 0 14.105469 0 15.410156 L 0 21.378906 C 0 22.679688 1.0625 23.789062 2.398438 23.789062 L 65.402344 23.789062 C 68.351562 23.789062 70.753906 21.378906 70.753906 18.414062 Z M 4.328125 20.546875 L 2.992188 20.546875 L 2.992188 22.601562 L 2.398438 22.601562 C 1.730469 22.601562 1.179688 22.046875 1.179688 21.378906 L 1.179688 15.410156 C 1.179688 14.738281 1.730469 14.183594 2.398438 14.183594 L 2.992188 14.183594 L 2.992188 16.238281 L 4.328125 16.238281 Z M 8.855469 18.609375 C 8.855469 18.964844 8.578125 19.242188 8.183594 19.242188 C 7.832031 19.242188 7.554688 18.964844 7.554688 18.609375 L 7.554688 14.460938 C 7.554688 14.105469 7.832031 13.789062 8.183594 13.789062 C 8.578125 13.789062 8.855469 14.105469 8.855469 14.460938 Z M 12.121094 16.359375 C 12.121094 16.714844 11.804688 17.03125 11.449219 17.03125 C 11.097656 17.03125 10.820312 16.714844 10.820312 16.359375 C 10.820312 14.976562 10.820312 15.84375 10.820312 14.460938 C 10.820312 14.105469 11.097656 13.789062 11.449219 13.789062 C 11.804688 13.789062 12.121094 14.105469 12.121094 14.460938 C 12.121094 15.84375 12.121094 14.976562 12.121094 16.359375 Z M 15.386719 18.609375 C 15.386719 18.964844 15.070312 19.242188 14.71875 19.242188 C 14.363281 19.242188 14.085938 18.964844 14.085938 18.609375 C 14.085938 17.226562 14.085938 15.84375 14.085938 14.460938 C 14.085938 14.105469 14.363281 13.789062 14.71875 13.789062 C 15.070312 13.789062 15.386719 14.105469 15.386719 14.460938 C 15.386719 15.84375 15.386719 17.226562 15.386719 18.609375 Z M 18.652344 16.359375 C 18.652344 16.714844 18.335938 17.03125 17.984375 17.03125 C 17.628906 17.03125 17.351562 16.714844 17.351562 16.359375 C 17.351562 14.976562 17.351562 15.84375 17.351562 14.460938 C 17.351562 14.105469 17.628906 13.789062 17.984375 13.789062 C 18.335938 13.789062 18.652344 14.105469 18.652344 14.460938 C 18.652344 15.84375 18.652344 14.976562 18.652344 16.359375 Z M 21.917969 18.609375 C 21.917969 18.964844 21.601562 19.242188 21.25 19.242188 C 20.894531 19.242188 20.621094 18.964844 20.621094 18.609375 C 20.621094 17.226562 20.621094 15.84375 20.621094 14.460938 C 20.621094 14.105469 20.894531 13.789062 21.25 13.789062 C 21.601562 13.789062 21.917969 14.105469 21.917969 14.460938 C 21.917969 15.84375 21.917969 17.226562 21.917969 18.609375 Z M 25.183594 16.359375 C 25.183594 16.714844 24.871094 17.03125 24.515625 17.03125 C 24.160156 17.03125 23.886719 16.714844 23.886719 16.359375 C 23.886719 14.976562 23.886719 15.84375 23.886719 14.460938 C 23.886719 14.105469 24.160156 13.789062 24.515625 13.789062 C 24.871094 13.789062 25.183594 14.105469 25.183594 14.460938 C 25.183594 15.84375 25.183594 14.976562 25.183594 16.359375 Z M 28.449219 18.609375 C 28.449219 18.964844 28.136719 19.242188 27.78125 19.242188 C 27.425781 19.242188 27.152344 18.964844 27.152344 18.609375 C 27.152344 17.226562 27.152344 15.84375 27.152344 14.460938 C 27.152344 14.105469 27.425781 13.789062 27.78125 13.789062 C 28.136719 13.789062 28.449219 14.105469 28.449219 14.460938 C 28.449219 15.84375 28.449219 17.226562 28.449219 18.609375 Z M 31.714844 16.359375 C 31.714844 16.714844 31.402344 17.03125 31.046875 17.03125 C 30.695312 17.03125 30.417969 16.714844 30.417969 16.359375 C 30.417969 14.976562 30.417969 15.84375 30.417969 14.460938 C 30.417969 14.105469 30.695312 13.789062 31.046875 13.789062 C 31.402344 13.789062 31.714844 14.105469 31.714844 14.460938 C 31.714844 15.84375 31.714844 14.976562 31.714844 16.359375 Z M 34.984375 18.609375 C 34.984375 18.964844 34.667969 19.242188 34.3125 19.242188 C 33.960938 19.242188 33.683594 18.964844 33.683594 18.609375 C 33.683594 17.226562 33.683594 15.84375 33.683594 14.460938 C 33.683594 14.105469 33.960938 13.789062 34.3125 13.789062 C 34.667969 13.789062 34.984375 14.105469 34.984375 14.460938 C 34.984375 15.84375 34.984375 17.226562 34.984375 18.609375 Z M 38.25 16.359375 C 38.25 16.714844 37.933594 17.03125 37.578125 17.03125 C 37.226562 17.03125 36.910156 16.714844 36.910156 16.359375 C 36.910156 14.976562 36.910156 15.84375 36.910156 14.460938 C 36.910156 14.105469 37.226562 13.789062 37.578125 13.789062 C 37.933594 13.789062 38.25 14.105469 38.25 14.460938 C 38.25 15.84375 38.25 14.976562 38.25 16.359375 Z M 41.515625 18.609375 C 41.515625 18.964844 41.199219 19.242188 40.847656 19.242188 C 40.492188 19.242188 40.175781 18.964844 40.175781 18.609375 C 40.175781 17.226562 40.175781 15.84375 40.175781 14.460938 C 40.175781 14.105469 40.492188 13.789062 40.847656 13.789062 C 41.199219 13.789062 41.515625 14.105469 41.515625 14.460938 C 41.515625 15.84375 41.515625 17.226562 41.515625 18.609375 Z M 44.78125 16.359375 C 44.78125 16.714844 44.464844 17.03125 44.113281 17.03125 C 43.757812 17.03125 43.441406 16.714844 43.441406 16.359375 C 43.441406 14.976562 43.441406 15.84375 43.441406 14.460938 C 43.441406 14.105469 43.757812 13.789062 44.113281 13.789062 C 44.464844 13.789062 44.78125 14.105469 44.78125 14.460938 C 44.78125 15.84375 44.78125 14.976562 44.78125 16.359375 Z M 48.046875 18.609375 C 48.046875 18.964844 47.730469 19.242188 47.378906 19.242188 C 47.023438 19.242188 46.710938 18.964844 46.710938 18.609375 C 46.710938 17.226562 46.710938 15.84375 46.710938 14.460938 C 46.710938 14.105469 47.023438 13.789062 47.378906 13.789062 C 47.730469 13.789062 48.046875 14.105469 48.046875 14.460938 C 48.046875 15.84375 48.046875 17.226562 48.046875 18.609375 Z M 51.3125 16.359375 C 51.3125 16.714844 51 17.03125 50.644531 17.03125 C 50.289062 17.03125 49.976562 16.714844 49.976562 16.359375 C 49.976562 14.976562 49.976562 15.84375 49.976562 14.460938 C 49.976562 14.105469 50.289062 13.789062 50.644531 13.789062 C 51 13.789062 51.3125 14.105469 51.3125 14.460938 C 51.3125 15.84375 51.3125 14.976562 51.3125 16.359375 Z M 54.578125 18.609375 C 54.578125 18.964844 54.265625 19.242188 53.910156 19.242188 C 53.554688 19.242188 53.242188 18.964844 53.242188 18.609375 C 53.242188 17.226562 53.242188 15.84375 53.242188 14.460938 C 53.242188 14.105469 53.554688 13.789062 53.910156 13.789062 C 54.265625 13.789062 54.578125 14.105469 54.578125 14.460938 C 54.578125 15.84375 54.578125 17.226562 54.578125 18.609375 Z M 57.84375 16.359375 C 57.84375 16.714844 57.53125 17.03125 57.175781 17.03125 C 56.820312 17.03125 56.507812 16.714844 56.507812 16.359375 C 56.507812 14.976562 56.507812 15.84375 56.507812 14.460938 C 56.507812 14.105469 56.820312 13.789062 57.175781 13.789062 C 57.53125 13.789062 57.84375 14.105469 57.84375 14.460938 C 57.84375 15.84375 57.84375 14.976562 57.84375 16.359375 Z M 61.070312 18.609375 C 61.070312 18.964844 60.796875 19.242188 60.441406 19.242188 C 60.089844 19.242188 59.773438 18.964844 59.773438 18.609375 C 59.773438 17.226562 59.773438 15.84375 59.773438 14.460938 C 59.773438 14.105469 60.089844 13.789062 60.441406 13.789062 C 60.796875 13.789062 61.070312 14.105469 61.070312 14.460938 C 61.070312 15.84375 61.070312 17.226562 61.070312 18.609375 Z M 64.339844 16.359375 C 64.339844 16.714844 64.0625 17.03125 63.707031 17.03125 C 63.355469 17.03125 63.039062 16.714844 63.039062 16.359375 L 63.039062 14.460938 C 63.039062 14.105469 63.355469 13.789062 63.707031 13.789062 C 64.0625 13.789062 64.339844 14.105469 64.339844 14.460938 Z M 64.730469 18.414062 C 64.730469 17.582031 65.402344 16.910156 66.226562 16.910156 C 67.015625 16.910156 67.683594 17.582031 67.683594 18.414062 C 67.683594 19.203125 67.015625 19.875 66.226562 19.875 C 65.402344 19.875 64.730469 19.203125 64.730469 18.414062 Z M 64.730469 18.414062 " fill-opacity="1" fill-rule="evenodd"/></svg>