<svg xmlns="http://www.w3.org/2000/svg" xmlns:xlink="http://www.w3.org/1999/xlink" width="100" zoomAndPan="magnify" viewBox="0 0 75 74.999997" height="100" preserveAspectRatio="xMidYMid meet" version="1.0"><defs><clipPath id="3a308a60b3"><path d="M 10.449219 8.96875 L 62 8.96875 L 62 60 L 10.449219 60 Z M 10.449219 8.96875 " clip-rule="nonzero"/></clipPath><clipPath id="285a62a0b5"><path d="M 34 33 L 70.449219 33 L 70.449219 68.96875 L 34 68.96875 Z M 34 33 " clip-rule="nonzero"/></clipPath></defs><g clip-path="url(#3a308a60b3)"><path fill="#000000" d="M 35.773438 59.589844 L 30.734375 59.589844 C 30.296875 59.589844 29.9375 59.230469 29.9375 58.792969 L 29.9375 52.703125 C 28.871094 52.363281 27.851562 51.9375 26.886719 51.429688 L 22.578125 55.742188 C 22.265625 56.050781 21.761719 56.050781 21.453125 55.742188 L 14.316406 48.617188 C 14.164062 48.46875 14.082031 48.265625 14.082031 48.054688 C 14.082031 47.84375 14.164062 47.640625 14.316406 47.492188 L 18.632812 43.179688 C 18.121094 42.203125 17.695312 41.179688 17.359375 40.125 L 11.265625 40.125 C 10.824219 40.125 10.46875 39.765625 10.46875 39.328125 L 10.46875 29.246094 C 10.46875 28.804688 10.824219 28.449219 11.265625 28.449219 L 17.359375 28.449219 C 17.703125 27.378906 18.128906 26.355469 18.632812 25.402344 L 14.316406 21.085938 C 14.164062 20.9375 14.082031 20.734375 14.082031 20.523438 C 14.082031 20.3125 14.164062 20.109375 14.316406 19.960938 L 21.453125 12.839844 C 21.761719 12.527344 22.265625 12.527344 22.578125 12.839844 L 26.882812 17.148438 C 27.863281 16.640625 28.886719 16.21875 29.9375 15.882812 L 29.9375 9.789062 C 29.9375 9.347656 30.296875 8.992188 30.734375 8.992188 L 40.8125 8.992188 C 41.25 8.992188 41.605469 9.347656 41.605469 9.789062 L 41.605469 15.882812 C 42.660156 16.21875 43.683594 16.640625 44.660156 17.148438 L 48.96875 12.839844 C 49.28125 12.527344 49.785156 12.527344 50.09375 12.839844 L 57.230469 19.960938 C 57.378906 20.109375 57.464844 20.3125 57.464844 20.523438 C 57.464844 20.734375 57.378906 20.9375 57.230469 21.085938 L 52.914062 25.402344 C 53.414062 26.355469 53.84375 27.378906 54.1875 28.449219 L 60.28125 28.449219 C 60.722656 28.449219 61.078125 28.804688 61.078125 29.246094 L 61.078125 34.289062 C 61.078125 34.730469 60.722656 35.085938 60.28125 35.085938 C 59.84375 35.085938 59.484375 34.730469 59.484375 34.289062 L 59.484375 30.039062 L 53.597656 30.039062 C 53.242188 30.039062 52.929688 29.804688 52.832031 29.464844 C 52.4375 28.097656 51.902344 26.816406 51.238281 25.660156 C 51.058594 25.347656 51.113281 24.953125 51.367188 24.699219 L 55.542969 20.523438 L 49.53125 14.527344 L 45.371094 18.691406 C 45.117188 18.941406 44.730469 18.996094 44.421875 18.824219 C 43.214844 18.152344 41.925781 17.617188 40.59375 17.238281 C 40.25 17.140625 40.015625 16.828125 40.015625 16.472656 L 40.015625 10.582031 L 31.53125 10.582031 L 31.53125 16.472656 C 31.53125 16.828125 31.292969 17.140625 30.953125 17.238281 C 29.621094 17.617188 28.332031 18.152344 27.125 18.824219 C 26.816406 18.996094 26.429688 18.941406 26.175781 18.691406 L 22.011719 14.527344 L 16.003906 20.523438 L 20.179688 24.699219 C 20.433594 24.953125 20.484375 25.347656 20.308594 25.660156 C 19.644531 26.816406 19.109375 28.097656 18.714844 29.464844 C 18.613281 29.804688 18.304688 30.042969 17.949219 30.042969 L 12.058594 30.042969 L 12.058594 38.53125 L 17.949219 38.53125 C 18.304688 38.53125 18.617188 38.769531 18.714844 39.109375 C 19.09375 40.445312 19.632812 41.730469 20.308594 42.933594 C 20.484375 43.246094 20.429688 43.632812 20.179688 43.886719 L 16.003906 48.054688 L 22.011719 54.054688 L 26.183594 49.882812 C 26.4375 49.628906 26.828125 49.578125 27.140625 49.753906 C 28.316406 50.421875 29.597656 50.960938 30.953125 51.351562 C 31.296875 51.449219 31.53125 51.757812 31.53125 52.113281 L 31.53125 57.996094 L 35.773438 57.996094 C 36.210938 57.996094 36.570312 58.351562 36.570312 58.792969 C 36.570312 59.230469 36.210938 59.589844 35.773438 59.589844 Z M 35.773438 59.589844 " fill-opacity="1" fill-rule="nonzero"/></g><path fill="#000000" d="M 35.773438 46.574219 C 35.183594 46.574219 34.582031 46.523438 33.996094 46.421875 C 32.007812 46.160156 30.078125 45.363281 28.4375 44.125 C 27.480469 43.421875 26.632812 42.574219 25.925781 41.613281 C 24.691406 39.976562 23.894531 38.046875 23.628906 36.046875 C 23.535156 35.484375 23.484375 34.882812 23.484375 34.28125 C 23.484375 33.691406 23.535156 33.09375 23.632812 32.503906 C 23.898438 30.527344 24.699219 28.597656 25.953125 26.945312 C 26.652344 26 27.488281 25.160156 28.441406 24.457031 C 30.066406 23.226562 31.996094 22.429688 34.019531 22.160156 C 34.546875 22.0625 35.132812 22.015625 35.773438 22.015625 C 36.414062 22.015625 37 22.0625 37.5625 22.167969 C 39.550781 22.429688 41.480469 23.226562 43.113281 24.460938 C 44.035156 25.144531 44.878906 25.980469 45.613281 26.941406 C 46.847656 28.601562 47.644531 30.53125 47.917969 32.527344 C 48.011719 33.09375 48.0625 33.691406 48.0625 34.28125 C 48.0625 34.722656 47.707031 35.082031 47.265625 35.082031 C 46.828125 35.082031 46.472656 34.730469 46.472656 34.289062 L 46.472656 34.28125 C 46.472656 33.78125 46.429688 33.273438 46.34375 32.769531 C 46.101562 31.011719 45.410156 29.335938 44.34375 27.898438 C 43.707031 27.066406 42.96875 26.335938 42.15625 25.734375 C 40.738281 24.660156 39.066406 23.972656 37.316406 23.738281 C 36.808594 23.648438 36.316406 23.605469 35.773438 23.605469 C 35.230469 23.605469 34.738281 23.648438 34.269531 23.730469 C 32.480469 23.972656 30.808594 24.660156 29.394531 25.730469 C 28.5625 26.347656 27.835938 27.074219 27.226562 27.898438 C 26.132812 29.339844 25.4375 31.011719 25.207031 32.742188 C 25.117188 33.273438 25.074219 33.78125 25.074219 34.28125 C 25.074219 34.792969 25.117188 35.308594 25.203125 35.8125 C 25.4375 37.566406 26.125 39.234375 27.203125 40.664062 C 27.820312 41.503906 28.554688 42.234375 29.386719 42.847656 C 30.816406 43.925781 32.488281 44.617188 34.230469 44.847656 C 34.761719 44.9375 35.269531 44.980469 35.773438 44.980469 C 36.210938 44.980469 36.570312 45.335938 36.570312 45.777344 C 36.570312 46.214844 36.210938 46.574219 35.773438 46.574219 Z M 35.773438 46.574219 " fill-opacity="1" fill-rule="nonzero"/><g clip-path="url(#285a62a0b5)"><path fill="#000000" d="M 66.683594 69 L 38.773438 69 C 36.679688 69 34.976562 67.296875 34.976562 65.203125 L 34.976562 37.292969 C 34.976562 35.199219 36.679688 33.496094 38.773438 33.496094 L 66.683594 33.496094 C 68.777344 33.496094 70.480469 35.199219 70.480469 37.292969 L 70.480469 65.203125 C 70.480469 67.296875 68.777344 69 66.683594 69 Z M 38.773438 35.085938 C 37.558594 35.085938 36.570312 36.078125 36.570312 37.292969 L 36.570312 65.203125 C 36.570312 66.417969 37.558594 67.40625 38.773438 67.40625 L 66.683594 67.40625 C 67.898438 67.40625 68.886719 66.417969 68.886719 65.203125 L 68.886719 37.292969 C 68.886719 36.078125 67.898438 35.085938 66.683594 35.085938 Z M 38.773438 35.085938 " fill-opacity="1" fill-rule="nonzero"/></g><path fill="#000000" d="M 64.242188 43.007812 L 48.246094 43.007812 C 47.808594 43.007812 47.449219 42.652344 47.449219 42.210938 C 47.449219 41.773438 47.808594 41.417969 48.246094 41.417969 L 64.242188 41.417969 C 64.683594 41.417969 65.039062 41.773438 65.039062 42.210938 C 65.039062 42.652344 64.683594 43.007812 64.242188 43.007812 Z M 64.242188 43.007812 " fill-opacity="1" fill-rule="nonzero"/><path fill="#000000" d="M 44.960938 43.007812 L 41.214844 43.007812 C 40.773438 43.007812 40.417969 42.652344 40.417969 42.210938 C 40.417969 41.773438 40.773438 41.417969 41.214844 41.417969 L 44.960938 41.417969 C 45.398438 41.417969 45.753906 41.773438 45.753906 42.210938 C 45.753906 42.652344 45.398438 43.007812 44.960938 43.007812 Z M 44.960938 43.007812 " fill-opacity="1" fill-rule="nonzero"/><path fill="#000000" d="M 64.242188 52.042969 L 60.28125 52.042969 C 59.84375 52.042969 59.484375 51.683594 59.484375 51.246094 C 59.484375 50.804688 59.84375 50.449219 60.28125 50.449219 L 64.242188 50.449219 C 64.683594 50.449219 65.039062 50.804688 65.039062 51.246094 C 65.039062 51.683594 64.683594 52.042969 64.242188 52.042969 Z M 64.242188 52.042969 " fill-opacity="1" fill-rule="nonzero"/><path fill="#000000" d="M 56.988281 52.042969 L 41.214844 52.042969 C 40.773438 52.042969 40.417969 51.683594 40.417969 51.246094 C 40.417969 50.804688 40.773438 50.449219 41.214844 50.449219 L 56.988281 50.449219 C 57.425781 50.449219 57.785156 50.804688 57.785156 51.246094 C 57.785156 51.683594 57.425781 52.042969 56.988281 52.042969 Z M 56.988281 52.042969 " fill-opacity="1" fill-rule="nonzero"/><path fill="#000000" d="M 64.242188 61.082031 L 51.972656 61.082031 C 51.53125 61.082031 51.175781 60.726562 51.175781 60.285156 C 51.175781 59.847656 51.53125 59.492188 51.972656 59.492188 L 64.242188 59.492188 C 64.683594 59.492188 65.039062 59.847656 65.039062 60.285156 C 65.039062 60.726562 64.683594 61.082031 64.242188 61.082031 Z M 64.242188 61.082031 " fill-opacity="1" fill-rule="nonzero"/><path fill="#000000" d="M 48.675781 61.082031 L 41.214844 61.082031 C 40.773438 61.082031 40.417969 60.726562 40.417969 60.285156 C 40.417969 59.847656 40.773438 59.492188 41.214844 59.492188 L 48.675781 59.492188 C 49.117188 59.492188 49.472656 59.847656 49.472656 60.285156 C 49.472656 60.726562 49.117188 61.082031 48.675781 61.082031 Z M 48.675781 61.082031 " fill-opacity="1" fill-rule="nonzero"/><path fill="#000000" d="M 46.601562 44.652344 C 45.257812 44.652344 44.160156 43.558594 44.160156 42.210938 C 44.160156 40.863281 45.257812 39.769531 46.601562 39.769531 C 47.949219 39.769531 49.042969 40.863281 49.042969 42.210938 C 49.042969 43.558594 47.949219 44.652344 46.601562 44.652344 Z M 46.601562 41.363281 C 46.132812 41.363281 45.753906 41.742188 45.753906 42.210938 C 45.753906 42.679688 46.132812 43.0625 46.601562 43.0625 C 47.070312 43.0625 47.453125 42.679688 47.453125 42.210938 C 47.453125 41.742188 47.070312 41.363281 46.601562 41.363281 Z M 46.601562 41.363281 " fill-opacity="1" fill-rule="nonzero"/><path fill="#000000" d="M 50.324219 62.726562 C 48.976562 62.726562 47.882812 61.628906 47.882812 60.285156 C 47.882812 58.9375 48.976562 57.84375 50.324219 57.84375 C 51.667969 57.84375 52.765625 58.9375 52.765625 60.285156 C 52.765625 61.628906 51.667969 62.726562 50.324219 62.726562 Z M 50.324219 59.433594 C 49.855469 59.433594 49.472656 59.816406 49.472656 60.285156 C 49.472656 60.753906 49.855469 61.132812 50.324219 61.132812 C 50.792969 61.132812 51.171875 60.753906 51.171875 60.285156 C 51.171875 59.816406 50.792969 59.433594 50.324219 59.433594 Z M 50.324219 59.433594 " fill-opacity="1" fill-rule="nonzero"/><path fill="#000000" d="M 58.636719 53.6875 C 57.289062 53.6875 56.195312 52.59375 56.195312 51.246094 C 56.195312 49.902344 57.289062 48.804688 58.636719 48.804688 C 59.984375 48.804688 61.078125 49.902344 61.078125 51.246094 C 61.078125 52.59375 59.984375 53.6875 58.636719 53.6875 Z M 58.636719 50.398438 C 58.167969 50.398438 57.785156 50.78125 57.785156 51.246094 C 57.785156 51.714844 58.167969 52.097656 58.636719 52.097656 C 59.105469 52.097656 59.484375 51.714844 59.484375 51.246094 C 59.484375 50.78125 59.105469 50.398438 58.636719 50.398438 Z M 58.636719 50.398438 " fill-opacity="1" fill-rule="nonzero"/></svg>