<svg xmlns="http://www.w3.org/2000/svg" xmlns:xlink="http://www.w3.org/1999/xlink" width="100" zoomAndPan="magnify" viewBox="0 0 75 74.999997" height="100" preserveAspectRatio="xMidYMid meet" version="1.0"><defs><clipPath id="4777cd6068"><path d="M 23 14 L 72.835938 14 L 72.835938 59 L 23 59 Z M 23 14 " clip-rule="nonzero"/></clipPath><clipPath id="717fa7eb64"><path d="M 23 33 L 72.835938 33 L 72.835938 59 L 23 59 Z M 23 33 " clip-rule="nonzero"/></clipPath><clipPath id="8c445c3cad"><path d="M 23 56 L 72.835938 56 L 72.835938 72.835938 L 23 72.835938 Z M 23 56 " clip-rule="nonzero"/></clipPath></defs><g clip-path="url(#4777cd6068)"><path stroke-linecap="round" transform="matrix(0.855342, 0, 0, 0.855342, -5.08739, -5.044613)" fill="none" stroke-linejoin="round" d="M 81.753528 24.000909 C 86.306713 24.000909 90.001324 27.69552 90.001324 32.253272 L 90.001324 73.501388 L 69.377266 45.9996 L 55.489366 63.874392 L 47.374009 54.247396 L 35.002314 69.962051 L 35.002314 32.253272 C 35.002314 27.69552 38.692358 24.000909 43.250111 24.000909 Z M 81.753528 24.000909 " stroke="#000000" stroke-width="2" stroke-opacity="1" stroke-miterlimit="10"/></g><path fill="#000000" d="M 24.851562 57.824219 L 24.851562 54.796875 L 35.433594 41.355469 L 42.375 49.589844 L 54.253906 34.300781 L 71.894531 57.824219 Z M 24.851562 57.824219 " fill-opacity="1" fill-rule="nonzero"/><g clip-path="url(#717fa7eb64)"><path stroke-linecap="round" transform="matrix(0.855342, 0, 0, 0.855342, -5.08739, -5.044613)" fill="none" stroke-linejoin="round" d="M 35.002314 73.501388 L 35.002314 69.962051 L 47.374009 54.247396 L 55.489366 63.874392 L 69.377266 45.9996 L 90.001324 73.501388 Z M 35.002314 73.501388 " stroke="#000000" stroke-width="2" stroke-opacity="1" stroke-miterlimit="10"/></g><path stroke-linecap="round" transform="matrix(0.855342, 0, 0, 0.855342, -5.08739, -5.044613)" fill-opacity="1" fill="#000000" fill-rule="nonzero" stroke-linejoin="round" d="M 59.75027 37.751803 C 59.75027 38.112587 59.713735 38.468804 59.645232 38.825022 C 59.576729 39.176672 59.47169 39.523755 59.330117 39.857138 C 59.19311 40.190521 59.024136 40.505636 58.823193 40.80705 C 58.62225 41.108465 58.393905 41.382478 58.13816 41.638223 C 57.886981 41.893969 57.608401 42.122313 57.306986 42.323256 C 57.005572 42.524199 56.690457 42.693174 56.357074 42.830181 C 56.023691 42.971754 55.676608 43.076793 55.324958 43.145296 C 54.968741 43.213799 54.612523 43.250334 54.251739 43.250334 C 53.890955 43.250334 53.530171 43.213799 53.178521 43.145296 C 52.822304 43.076793 52.479788 42.971754 52.146405 42.830181 C 51.813022 42.693174 51.497907 42.524199 51.196493 42.323256 C 50.895078 42.122313 50.616498 41.893969 50.360752 41.638223 C 50.105007 41.382478 49.876663 41.108465 49.67572 40.80705 C 49.479343 40.505636 49.305802 40.190521 49.168795 39.857138 C 49.031789 39.523755 48.92675 39.176672 48.858247 38.825022 C 48.785177 38.468804 48.753209 38.112587 48.753209 37.751803 C 48.753209 37.391019 48.785177 37.030235 48.858247 36.678585 C 48.92675 36.322368 49.031789 35.979851 49.168795 35.646469 C 49.305802 35.313086 49.479343 34.993404 49.67572 34.696556 C 49.876663 34.395142 50.105007 34.116562 50.360752 33.860816 C 50.616498 33.605071 50.895078 33.376726 51.196493 33.175783 C 51.497907 32.979407 51.813022 32.805866 52.146405 32.668859 C 52.479788 32.531852 52.822304 32.426814 53.178521 32.358311 C 53.530171 32.285241 53.890955 32.253272 54.251739 32.253272 C 54.612523 32.253272 54.968741 32.285241 55.324958 32.358311 C 55.676608 32.426814 56.023691 32.531852 56.357074 32.668859 C 56.690457 32.805866 57.005572 32.979407 57.306986 33.175783 C 57.608401 33.376726 57.886981 33.605071 58.13816 33.860816 C 58.393905 34.116562 58.62225 34.395142 58.823193 34.696556 C 59.024136 34.993404 59.19311 35.313086 59.330117 35.646469 C 59.47169 35.979851 59.576729 36.322368 59.645232 36.678585 C 59.713735 37.030235 59.75027 37.391019 59.75027 37.751803 Z M 59.75027 37.751803 " stroke="#000000" stroke-width="2" stroke-opacity="1" stroke-miterlimit="10"/><g clip-path="url(#8c445c3cad)"><path stroke-linecap="round" transform="matrix(0.855342, 0, 0, 0.855342, -5.08739, -5.044613)" fill="none" stroke-linejoin="round" d="M 43.250111 90.001548 C 38.692358 90.001548 35.002314 86.306937 35.002314 81.749185 L 35.002314 73.501388 L 90.001324 73.501388 L 90.001324 81.749185 C 90.001324 86.306937 86.306713 90.001548 81.753528 90.001548 Z M 43.250111 90.001548 " stroke="#000000" stroke-width="2" stroke-opacity="1" stroke-miterlimit="10"/></g><path stroke-linecap="round" transform="matrix(0.855342, 0, 0, 0.855342, -5.08739, -5.044613)" fill-opacity="1" fill="#000000" fill-rule="nonzero" stroke-linejoin="round" d="M 34.997747 81.749185 L 34.997747 32.248705 C 34.997747 27.690953 38.692358 24.000909 43.250111 24.000909 L 65.130062 24.000909 L 61.440018 15.095481 C 59.700035 10.884812 54.872836 8.884516 50.662167 10.629066 L 15.090691 25.361841 C 10.884588 27.106392 8.888859 31.93359 10.628843 36.144259 L 29.572287 81.872491 C 30.846448 84.946005 33.764688 86.822995 36.883871 86.941734 C 35.723882 85.521433 34.997747 83.731213 34.997747 81.749185 Z M 34.997747 81.749185 " stroke="#000000" stroke-width="2" stroke-opacity="1" stroke-miterlimit="10"/></svg>