<svg xmlns="http://www.w3.org/2000/svg" xmlns:xlink="http://www.w3.org/1999/xlink" width="100" zoomAndPan="magnify" viewBox="0 0 75 74.999997" height="100" preserveAspectRatio="xMidYMid meet" version="1.0"><defs><clipPath id="46debc3acf"><path d="M 11 4.671875 L 26 4.671875 L 26 27 L 11 27 Z M 11 4.671875 " clip-rule="nonzero"/></clipPath><clipPath id="0e474d36ba"><path d="M 9.523438 20 L 28 20 L 28 30 L 9.523438 30 Z M 9.523438 20 " clip-rule="nonzero"/></clipPath><clipPath id="d6fc6b8839"><path d="M 9.523438 55 L 28 55 L 28 64.671875 L 9.523438 64.671875 Z M 9.523438 55 " clip-rule="nonzero"/></clipPath></defs><g clip-path="url(#46debc3acf)"><path fill="#000000" d="M 18.613281 4.664062 C 22.5625 4.664062 25.761719 7.878906 25.761719 11.84375 C 25.761719 14.6875 22.824219 18.769531 21.457031 21.148438 L 18.613281 26.101562 L 15.769531 21.148438 C 14.402344 18.769531 11.46875 14.6875 11.46875 11.84375 C 11.46875 7.878906 14.667969 4.664062 18.613281 4.664062 Z M 18.613281 7.164062 C 20.757812 7.164062 22.496094 8.910156 22.496094 11.066406 C 22.496094 13.21875 20.757812 14.96875 18.613281 14.96875 C 16.46875 14.96875 14.734375 13.21875 14.734375 11.066406 C 14.734375 8.910156 16.46875 7.164062 18.613281 7.164062 Z M 18.613281 7.164062 " fill-opacity="1" fill-rule="evenodd"/></g><g clip-path="url(#0e474d36ba)"><path fill="#000000" d="M 23.265625 20.828125 C 25.148438 21.433594 27.519531 22.765625 27.519531 25.027344 C 27.519531 28.820312 21.480469 29.910156 18.613281 29.910156 C 15.75 29.910156 9.707031 28.820312 9.707031 25.027344 C 9.707031 22.765625 12.082031 21.433594 13.964844 20.828125 C 14.410156 21.507812 14.867188 22.183594 15.320312 22.859375 C 14.464844 23.070312 12.03125 23.902344 12.03125 25.027344 C 12.03125 26.949219 17.316406 27.574219 18.613281 27.574219 C 19.910156 27.574219 25.199219 26.949219 25.199219 25.027344 C 25.199219 23.902344 22.765625 23.070312 21.90625 22.859375 C 22.359375 22.183594 22.816406 21.507812 23.265625 20.828125 Z M 23.265625 20.828125 " fill-opacity="1" fill-rule="nonzero"/></g><path fill="#000000" d="M 59.085938 21.757812 C 63.03125 21.757812 66.230469 24.972656 66.230469 28.9375 C 66.230469 31.78125 63.296875 35.863281 61.929688 38.242188 L 59.085938 43.191406 L 56.242188 38.242188 C 54.875 35.863281 51.941406 31.78125 51.941406 28.9375 C 51.941406 24.972656 55.140625 21.757812 59.085938 21.757812 Z M 59.085938 24.257812 C 61.230469 24.257812 62.96875 26.003906 62.96875 28.160156 C 62.96875 30.3125 61.230469 32.058594 59.085938 32.058594 C 56.941406 32.058594 55.203125 30.3125 55.203125 28.160156 C 55.203125 26.003906 56.941406 24.257812 59.085938 24.257812 Z M 59.085938 24.257812 " fill-opacity="1" fill-rule="evenodd"/><path fill="#000000" d="M 63.738281 37.921875 C 65.617188 38.527344 67.992188 39.859375 67.992188 42.121094 C 67.992188 45.914062 61.953125 47.003906 59.085938 47.003906 C 56.21875 47.003906 50.179688 45.914062 50.179688 42.121094 C 50.179688 39.859375 52.554688 38.527344 54.433594 37.921875 C 54.882812 38.601562 55.339844 39.277344 55.792969 39.953125 C 54.9375 40.164062 52.5 40.996094 52.5 42.121094 C 52.5 44.042969 57.789062 44.667969 59.085938 44.667969 C 60.382812 44.667969 65.671875 44.042969 65.671875 42.121094 C 65.671875 40.996094 63.234375 40.164062 62.378906 39.953125 C 62.832031 39.277344 63.289062 38.601562 63.738281 37.921875 Z M 63.738281 37.921875 " fill-opacity="1" fill-rule="nonzero"/><path fill="#000000" d="M 18.425781 39.433594 C 22.371094 39.433594 25.570312 42.648438 25.570312 46.617188 C 25.570312 49.457031 22.632812 53.539062 21.269531 55.917969 L 18.425781 60.871094 L 15.578125 55.917969 C 14.214844 53.539062 11.277344 49.457031 11.277344 46.617188 C 11.277344 42.648438 14.476562 39.433594 18.425781 39.433594 Z M 18.425781 41.933594 C 20.566406 41.933594 22.304688 43.679688 22.304688 45.835938 C 22.304688 47.988281 20.566406 49.738281 18.425781 49.738281 C 16.28125 49.738281 14.542969 47.988281 14.542969 45.835938 C 14.542969 43.679688 16.28125 41.933594 18.425781 41.933594 Z M 18.425781 41.933594 " fill-opacity="1" fill-rule="evenodd"/><g clip-path="url(#d6fc6b8839)"><path fill="#000000" d="M 23.074219 55.597656 C 24.957031 56.203125 27.328125 57.539062 27.328125 59.796875 C 27.328125 63.589844 21.289062 64.679688 18.425781 64.679688 C 15.558594 64.679688 9.519531 63.589844 9.519531 59.796875 C 9.519531 57.539062 11.890625 56.203125 13.773438 55.597656 C 14.222656 56.277344 14.679688 56.953125 15.132812 57.628906 C 14.273438 57.84375 11.839844 58.671875 11.839844 59.796875 C 11.839844 61.71875 17.128906 62.34375 18.425781 62.34375 C 19.71875 62.34375 25.007812 61.71875 25.007812 59.796875 C 25.007812 58.671875 22.574219 57.84375 21.714844 57.628906 C 22.171875 56.953125 22.625 56.277344 23.074219 55.597656 Z M 23.074219 55.597656 " fill-opacity="1" fill-rule="nonzero"/></g><path fill="#000000" d="M 26.429688 24.972656 L 53.847656 39.191406 L 52.785156 41.257812 L 25.371094 27.039062 Z M 26.429688 24.972656 " fill-opacity="1" fill-rule="nonzero"/><path fill="#000000" d="M 54.945312 45.890625 L 25.863281 60.058594 L 24.855469 57.960938 L 53.941406 43.792969 Z M 54.945312 45.890625 " fill-opacity="1" fill-rule="nonzero"/></svg>