<svg xmlns="http://www.w3.org/2000/svg" xmlns:xlink="http://www.w3.org/1999/xlink" width="100" zoomAndPan="magnify" viewBox="0 0 75 74.999997" height="100" preserveAspectRatio="xMidYMid meet" version="1.0"><defs><clipPath id="2dadb6db59"><path d="M 7.5 7.5 L 67.5 7.5 L 67.5 67.5 L 7.5 67.5 Z M 7.5 7.5 " clip-rule="nonzero"/></clipPath></defs><path fill="#000000" d="M 31.117188 36.964844 C 31.117188 37.6875 30.589844 38.234375 29.886719 38.351562 C 30.589844 38.503906 31.117188 39.050781 31.117188 39.773438 L 31.117188 43.363281 C 31.117188 45.195312 30.121094 46.171875 28.289062 46.171875 L 26.023438 46.171875 C 24.246094 46.171875 23.289062 45.214844 23.289062 43.441406 L 23.289062 42.796875 C 23.289062 42.542969 23.425781 42.40625 23.679688 42.40625 L 25.554688 42.40625 C 25.808594 42.40625 25.945312 42.542969 25.945312 42.796875 L 25.945312 43.597656 L 28.132812 43.597656 C 28.386719 43.597656 28.523438 43.460938 28.523438 43.207031 L 28.523438 40.4375 C 28.523438 39.929688 28.269531 39.65625 27.742188 39.65625 L 25.4375 39.65625 C 25.183594 39.65625 25.046875 39.519531 25.046875 39.265625 L 25.046875 37.472656 C 25.046875 37.21875 25.183594 37.082031 25.4375 37.082031 L 27.742188 37.082031 C 28.25 37.082031 28.523438 36.808594 28.523438 36.324219 L 28.523438 33.53125 C 28.523438 33.28125 28.386719 33.144531 28.132812 33.144531 L 25.945312 33.144531 L 25.945312 33.941406 C 25.945312 34.195312 25.808594 34.332031 25.554688 34.332031 L 23.679688 34.332031 C 23.425781 34.332031 23.289062 34.195312 23.289062 33.941406 L 23.289062 33.144531 C 23.289062 31.464844 24.246094 30.566406 26.023438 30.566406 L 28.289062 30.566406 C 30.121094 30.566406 31.117188 31.542969 31.117188 33.378906 L 31.117188 36.964844 " fill-opacity="1" fill-rule="nonzero"/><path fill="#000000" d="M 37.519531 43.597656 C 38.027344 43.597656 38.300781 43.324219 38.300781 42.816406 L 38.300781 39.949219 C 38.300781 39.441406 38.027344 39.167969 37.519531 39.167969 L 36.425781 39.167969 C 35.917969 39.167969 35.644531 39.441406 35.644531 39.949219 L 35.644531 42.816406 C 35.644531 43.324219 35.917969 43.597656 36.425781 43.597656 Z M 38.144531 36.59375 C 39.921875 36.59375 40.878906 37.550781 40.878906 39.324219 L 40.878906 43.441406 C 40.878906 45.214844 39.921875 46.171875 38.144531 46.171875 L 35.800781 46.171875 C 34.023438 46.171875 33.066406 45.214844 33.066406 43.441406 L 33.066406 38.429688 C 33.066406 38.058594 33.125 37.804688 33.261719 37.453125 L 36.035156 30.859375 C 36.113281 30.664062 36.25 30.566406 36.484375 30.566406 L 38.515625 30.566406 C 38.808594 30.566406 38.925781 30.742188 38.808594 31.015625 L 36.445312 36.59375 L 38.144531 36.59375 " fill-opacity="1" fill-rule="nonzero"/><path fill="#000000" d="M 47.339844 43.65625 C 47.847656 43.65625 48.121094 43.402344 48.121094 42.875 L 48.121094 33.867188 C 48.121094 33.355469 47.847656 33.085938 47.339844 33.085938 L 46.207031 33.085938 C 45.699219 33.085938 45.425781 33.355469 45.425781 33.867188 L 45.425781 42.875 C 45.425781 43.402344 45.699219 43.65625 46.207031 43.65625 Z M 42.828125 33.378906 C 42.828125 31.542969 43.804688 30.566406 45.640625 30.566406 L 47.828125 30.566406 C 49.664062 30.566406 50.640625 31.542969 50.640625 33.378906 L 50.640625 43.363281 C 50.640625 45.195312 49.664062 46.171875 47.828125 46.171875 L 45.640625 46.171875 C 43.804688 46.171875 42.828125 45.195312 42.828125 43.363281 L 42.828125 33.378906 " fill-opacity="1" fill-rule="nonzero"/><path fill="#000000" d="M 54.503906 30.628906 C 53.882812 30.628906 53.378906 31.128906 53.378906 31.75 C 53.378906 32.367188 53.882812 32.871094 54.503906 32.871094 C 55.121094 32.871094 55.625 32.367188 55.625 31.75 C 55.625 31.128906 55.121094 30.628906 54.503906 30.628906 Z M 54.503906 34.863281 C 52.785156 34.863281 51.382812 33.464844 51.382812 31.75 C 51.382812 30.03125 52.785156 28.632812 54.503906 28.632812 C 56.222656 28.632812 57.621094 30.03125 57.621094 31.75 C 57.621094 33.464844 56.222656 34.863281 54.503906 34.863281 " fill-opacity="1" fill-rule="nonzero"/><path fill="#000000" d="M 49.222656 55.683594 C 49.222656 55.683594 48.765625 56.054688 47.910156 56.753906 C 47.492188 57.113281 46.957031 57.527344 46.289062 57.984375 C 45.640625 58.464844 44.875 58.992188 43.972656 59.507812 C 42.203125 60.59375 39.929688 61.753906 37.136719 62.648438 C 34.355469 63.539062 31.03125 64.210938 27.335938 63.964844 C 25.5 63.78125 23.566406 63.46875 21.671875 62.71875 C 19.796875 61.957031 17.917969 60.898438 16.324219 59.390625 L 16.089844 59.191406 L 15.964844 59.054688 L 15.707031 58.773438 L 15.191406 58.207031 C 14.847656 57.828125 14.5 57.46875 14.171875 56.949219 C 13.84375 56.464844 13.511719 55.976562 13.179688 55.488281 C 12.925781 54.980469 12.671875 54.46875 12.417969 53.953125 C 11.484375 51.863281 10.859375 49.5625 10.730469 47.214844 L 10.652344 46.332031 L 10.65625 45.445312 C 10.667969 44.855469 10.652344 44.261719 10.691406 43.667969 C 10.828125 42.492188 10.894531 41.292969 11.171875 40.128906 C 11.578125 37.761719 12.394531 35.480469 13.332031 33.25 C 15.328125 28.832031 18.167969 24.753906 21.585938 21.253906 C 22.542969 20.34375 23.308594 19.625 24.25 18.8125 C 25.234375 18.058594 26.175781 17.195312 27.199219 16.546875 C 28.203125 15.847656 29.210938 15.164062 30.28125 14.582031 C 31.320312 13.941406 32.425781 13.429688 33.519531 12.90625 C 34.613281 12.390625 35.761719 11.988281 36.886719 11.566406 C 38.050781 11.25 39.183594 10.847656 40.375 10.65625 C 42.707031 10.121094 45.109375 10 47.457031 10.101562 C 49.808594 10.21875 52.113281 10.78125 54.238281 11.644531 C 56.355469 12.566406 58.214844 13.898438 59.777344 15.425781 C 59.777344 15.421875 59.902344 15.554688 59.902344 15.554688 L 59.964844 15.625 L 60.085938 15.769531 L 60.332031 16.058594 L 60.816406 16.628906 C 61.140625 16.972656 61.445312 17.476562 61.75 17.925781 C 62.402344 18.832031 62.796875 19.773438 63.242188 20.691406 C 63.972656 22.585938 64.421875 24.488281 64.582031 26.332031 C 64.933594 30.019531 64.269531 33.355469 63.417969 36.140625 C 62.566406 38.941406 61.410156 41.222656 60.347656 43.003906 C 60.078125 43.445312 59.828125 43.867188 59.589844 44.265625 C 59.324219 44.644531 59.078125 44.996094 58.847656 45.328125 C 58.394531 45.992188 57.988281 46.539062 57.628906 46.964844 C 56.9375 47.824219 56.566406 48.28125 56.566406 48.28125 C 56.566406 48.28125 56.882812 47.785156 57.476562 46.855469 C 57.785156 46.402344 58.128906 45.816406 58.5 45.113281 C 58.894531 44.417969 59.324219 43.617188 59.746094 42.683594 C 60.628906 40.851562 61.527344 38.535156 62.15625 35.800781 C 62.761719 33.074219 63.136719 29.894531 62.632812 26.5625 C 62.390625 24.898438 61.878906 23.230469 61.152344 21.617188 C 60.710938 20.855469 60.328125 20.011719 59.789062 19.347656 C 59.527344 18.996094 59.324219 18.640625 58.949219 18.273438 L 58.441406 17.722656 L 58.1875 17.445312 L 58.058594 17.304688 L 57.992188 17.234375 C 57.972656 17.210938 58.074219 17.324219 58.015625 17.265625 C 56.59375 16.003906 54.992188 14.949219 53.171875 14.246094 C 51.332031 13.617188 49.371094 13.140625 47.304688 13.101562 C 43.191406 12.96875 38.886719 14.042969 34.894531 15.902344 C 33.90625 16.386719 32.898438 16.855469 31.957031 17.453125 C 30.980469 17.992188 30.058594 18.632812 29.144531 19.28125 C 28.191406 19.894531 27.410156 20.644531 26.527344 21.316406 C 25.695312 22.042969 24.753906 22.945312 24.011719 23.65625 C 20.832031 26.855469 18.191406 30.585938 16.34375 34.589844 C 15.492188 36.617188 14.695312 38.664062 14.28125 40.765625 C 14 41.804688 13.921875 42.863281 13.769531 43.902344 C 13.722656 44.425781 13.726562 44.949219 13.699219 45.464844 L 13.671875 46.246094 L 13.722656 47.011719 C 13.773438 49.074219 14.296875 51.027344 14.988281 52.835938 C 15.183594 53.277344 15.378906 53.722656 15.574219 54.160156 C 15.8125 54.550781 16.050781 54.9375 16.285156 55.320312 C 16.476562 55.707031 16.828125 56.105469 17.160156 56.5 L 17.648438 57.085938 L 17.894531 57.378906 C 17.90625 57.398438 18.003906 57.507812 17.894531 57.386719 L 17.957031 57.445312 L 18.085938 57.5625 C 19.378906 58.90625 20.957031 59.855469 22.546875 60.621094 C 24.160156 61.375 25.875 61.753906 27.53125 62.023438 C 30.882812 62.429688 34.058594 62.050781 36.78125 61.398438 C 39.507812 60.730469 41.824219 59.820312 43.648438 58.914062 C 44.582031 58.484375 45.375 58.039062 46.0625 57.648438 C 46.765625 57.273438 47.347656 56.917969 47.804688 56.605469 C 48.730469 56.003906 49.222656 55.683594 49.222656 55.683594 " fill-opacity="1" fill-rule="nonzero"/><g clip-path="url(#2dadb6db59)"><path fill="#000000" d="M 52.996094 22.320312 C 52.996094 22.320312 52.5 21.902344 51.570312 21.117188 C 50.664062 20.296875 49.222656 19.242188 47.421875 17.910156 C 45.546875 16.65625 43.261719 15.148438 40.445312 13.808594 C 37.652344 12.457031 34.363281 11.171875 30.664062 10.464844 C 29.734375 10.347656 28.796875 10.101562 27.828125 10.085938 C 27.34375 10.054688 26.859375 10.023438 26.367188 9.988281 C 25.878906 9.960938 25.386719 10.015625 24.890625 10.023438 C 23.890625 10.015625 22.910156 10.203125 21.910156 10.34375 C 21.410156 10.40625 20.941406 10.597656 20.449219 10.71875 C 19.957031 10.839844 19.46875 10.980469 19.015625 11.214844 C 17.109375 11.917969 15.421875 13.203125 14.121094 14.785156 C 13.269531 15.726562 12.9375 16.535156 12.429688 17.433594 C 12.230469 17.929688 12.035156 18.425781 11.835938 18.925781 C 11.660156 19.4375 11.570312 19.984375 11.429688 20.511719 C 10.511719 24.847656 11.347656 29.699219 13.054688 34.222656 C 14.738281 38.789062 17.375 43.113281 20.566406 46.964844 C 23.710938 50.835938 27.453125 54.34375 31.449219 57.148438 C 35.476562 59.972656 39.863281 62.15625 44.324219 63.390625 C 44.878906 63.578125 45.441406 63.667969 46 63.785156 C 46.558594 63.886719 47.113281 64.039062 47.671875 64.101562 C 48.789062 64.210938 49.894531 64.382812 50.984375 64.351562 C 52.085938 64.421875 53.136719 64.246094 54.195312 64.15625 C 55.203125 63.90625 56.253906 63.765625 57.171875 63.335938 C 58.152344 63.035156 58.972656 62.472656 59.832031 62 C 60.214844 61.695312 60.59375 61.390625 60.96875 61.089844 C 61.128906 60.953125 61.40625 60.757812 61.46875 60.667969 L 62.007812 60.089844 L 62.539062 59.519531 L 62.921875 58.96875 C 63.1875 58.609375 63.457031 58.257812 63.660156 57.828125 C 64.144531 57.03125 64.46875 56.167969 64.792969 55.320312 C 65.898438 51.835938 65.832031 48.292969 65.351562 45.261719 C 64.867188 42.210938 64.019531 39.609375 63.214844 37.511719 C 62.367188 35.429688 61.609375 33.820312 61.035156 32.753906 C 60.457031 31.683594 60.148438 31.113281 60.148438 31.113281 C 60.148438 31.113281 60.515625 31.648438 61.207031 32.652344 C 61.882812 33.660156 62.851562 35.171875 63.882812 37.214844 C 64.886719 39.265625 66.011719 41.839844 66.734375 44.996094 C 67.132812 46.5625 67.339844 48.285156 67.453125 50.117188 C 67.480469 51.957031 67.347656 53.917969 66.820312 55.921875 C 65.78125 59.878906 62.816406 64.089844 58.210938 65.875 C 57.113281 66.425781 55.910156 66.660156 54.714844 66.992188 C 53.5 67.160156 52.265625 67.402344 51.019531 67.378906 C 48.515625 67.503906 46 67.101562 43.523438 66.527344 C 38.589844 65.265625 33.753906 63.09375 29.429688 60.066406 C 25.050781 57.039062 21.132812 53.421875 17.714844 49.28125 C 14.335938 45.128906 11.53125 40.46875 9.722656 35.445312 C 8.765625 32.957031 8.171875 30.335938 7.867188 27.703125 C 7.527344 25.074219 7.703125 22.375 8.277344 19.796875 C 9.34375 14.566406 13.410156 10.171875 18.035156 8.664062 C 20.3125 7.851562 22.648438 7.5 24.855469 7.578125 C 25.40625 7.597656 25.957031 7.574219 26.492188 7.636719 C 27.027344 7.699219 27.558594 7.765625 28.082031 7.828125 C 29.140625 7.914062 30.125 8.226562 31.113281 8.414062 C 35.027344 9.371094 38.335938 10.972656 41.105469 12.578125 C 43.90625 14.148438 46.085938 15.90625 47.863281 17.335938 C 49.59375 18.84375 50.886719 20.074219 51.707031 20.972656 C 52.546875 21.851562 52.996094 22.320312 52.996094 22.320312 " fill-opacity="1" fill-rule="nonzero"/></g></svg>