<svg xmlns="http://www.w3.org/2000/svg" xmlns:xlink="http://www.w3.org/1999/xlink" width="100" zoomAndPan="magnify" viewBox="0 0 75 74.999997" height="100" preserveAspectRatio="xMidYMid meet" version="1.0"><defs><clipPath id="90f4816eff"><path d="M 10.359375 12 L 16 12 L 16 19 L 10.359375 19 Z M 10.359375 12 " clip-rule="nonzero"/></clipPath><clipPath id="4663293bbb"><path d="M 59 20 L 64.359375 20 L 64.359375 26 L 59 26 Z M 59 20 " clip-rule="nonzero"/></clipPath></defs><path fill="#000000" d="M 33.503906 10.363281 C 32.085938 10.363281 30.929688 9.203125 30.929688 7.78125 C 30.929688 6.355469 32.085938 5.195312 33.503906 5.195312 C 34.917969 5.195312 36.074219 6.355469 36.074219 7.78125 C 36.074219 9.203125 34.917969 10.363281 33.503906 10.363281 Z M 33.503906 7.78125 Z M 33.503906 7.78125 " fill-opacity="1" fill-rule="nonzero"/><path fill="#000000" d="M 20.648438 7.78125 C 19.230469 7.78125 18.078125 6.621094 18.078125 5.195312 C 18.078125 3.769531 19.230469 2.613281 20.648438 2.613281 C 22.066406 2.613281 23.21875 3.769531 23.21875 5.195312 C 23.21875 6.621094 22.066406 7.78125 20.648438 7.78125 Z M 20.648438 5.195312 L 20.648438 5.199219 Z M 20.648438 5.195312 " fill-opacity="1" fill-rule="nonzero"/><g clip-path="url(#90f4816eff)"><path fill="#000000" d="M 12.933594 18.117188 C 11.515625 18.117188 10.363281 16.957031 10.363281 15.535156 C 10.363281 14.109375 11.515625 12.949219 12.933594 12.949219 C 14.351562 12.949219 15.503906 14.109375 15.503906 15.535156 C 15.503906 16.957031 14.351562 18.117188 12.933594 18.117188 Z M 12.933594 15.535156 Z M 12.933594 15.535156 " fill-opacity="1" fill-rule="nonzero"/></g><path fill="#000000" d="M 42.5 5.195312 C 41.085938 5.195312 39.929688 4.035156 39.929688 2.613281 C 39.929688 1.1875 41.085938 0.0273438 42.5 0.0273438 C 43.917969 0.0273438 45.074219 1.1875 45.074219 2.613281 C 45.074219 4.035156 43.917969 5.195312 42.5 5.195312 Z M 42.5 2.613281 Z M 42.5 2.613281 " fill-opacity="1" fill-rule="nonzero"/><path fill="#000000" d="M 59.214844 9.070312 C 57.796875 9.070312 56.640625 7.910156 56.640625 6.488281 C 56.640625 5.0625 57.796875 3.902344 59.214844 3.902344 C 60.628906 3.902344 61.785156 5.0625 61.785156 6.488281 C 61.785156 7.910156 60.628906 9.070312 59.214844 9.070312 Z M 59.214844 6.488281 Z M 59.214844 6.488281 " fill-opacity="1" fill-rule="nonzero"/><g clip-path="url(#4663293bbb)"><path fill="#000000" d="M 61.785156 25.871094 C 60.367188 25.871094 59.214844 24.710938 59.214844 23.285156 C 59.214844 21.863281 60.367188 20.703125 61.785156 20.703125 C 63.203125 20.703125 64.355469 21.863281 64.355469 23.285156 C 64.355469 24.710938 63.203125 25.871094 61.785156 25.871094 Z M 61.785156 23.285156 L 61.785156 23.289062 Z M 61.785156 23.285156 " fill-opacity="1" fill-rule="nonzero"/></g><path fill="#000000" d="M 32.214844 9.070312 L 34.785156 9.070312 L 34.785156 16.824219 L 32.214844 16.824219 Z M 32.214844 9.070312 " fill-opacity="1" fill-rule="nonzero"/><path fill="#000000" d="M 32.214844 19.410156 L 34.785156 19.410156 L 34.785156 21.996094 L 32.214844 21.996094 Z M 32.214844 19.410156 " fill-opacity="1" fill-rule="nonzero"/><path fill="#000000" d="M 32.214844 24.578125 L 34.785156 24.578125 L 34.785156 36.210938 L 32.214844 36.210938 Z M 32.214844 24.578125 " fill-opacity="1" fill-rule="nonzero"/><path fill="#000000" d="M 41.214844 32.332031 L 38.644531 32.332031 L 38.644531 19.800781 C 38.644531 19.289062 38.792969 18.792969 39.078125 18.367188 L 41.214844 15.140625 L 41.214844 3.902344 L 43.785156 3.902344 L 43.785156 15.144531 C 43.785156 15.65625 43.636719 16.152344 43.351562 16.578125 L 41.214844 19.804688 Z M 41.214844 32.332031 " fill-opacity="1" fill-rule="nonzero"/><path fill="#000000" d="M 47.644531 24.578125 L 50.214844 24.578125 L 50.214844 27.164062 L 47.644531 27.164062 Z M 47.644531 24.578125 " fill-opacity="1" fill-rule="nonzero"/><path fill="#000000" d="M 50.214844 21.996094 L 47.644531 21.996094 L 47.644531 12.453125 C 47.644531 11.472656 48.1875 10.585938 49.0625 10.144531 L 57.488281 5.910156 L 58.636719 8.222656 L 50.214844 12.457031 Z M 50.214844 21.996094 " fill-opacity="1" fill-rule="nonzero"/><path fill="#000000" d="M 28.359375 36.210938 L 25.789062 36.210938 L 25.789062 14.65625 L 20.347656 6.996094 L 22.4375 5.496094 L 27.882812 13.15625 C 28.195312 13.597656 28.359375 14.117188 28.359375 14.65625 Z M 28.359375 36.210938 " fill-opacity="1" fill-rule="nonzero"/><path fill="#000000" d="M 23.21875 32.332031 L 20.648438 32.332031 L 20.648438 23.878906 L 13.070312 17.351562 L 14.746094 15.390625 L 22.320312 21.917969 C 22.890625 22.40625 23.21875 23.125 23.21875 23.878906 Z M 23.21875 32.332031 " fill-opacity="1" fill-rule="nonzero"/><path fill="#000000" d="M 55.355469 36.210938 L 52.785156 36.210938 L 52.785156 26.800781 C 52.785156 25.6875 53.492188 24.703125 54.539062 24.351562 L 60.164062 22.46875 L 60.976562 24.917969 L 55.355469 26.804688 Z M 55.355469 36.210938 " fill-opacity="1" fill-rule="nonzero"/><path fill="#000000" d="M 49.34375 68.515625 L 42.5 68.515625 L 42.5 65.929688 L 49.34375 65.929688 L 53.972656 54.296875 C 54.035156 54.136719 54.070312 53.960938 54.070312 53.789062 L 54.070312 37.5 L 23.21875 37.5 L 23.21875 53.789062 C 23.21875 53.960938 23.25 54.132812 23.3125 54.292969 L 27.945312 65.929688 L 34.785156 65.929688 L 34.785156 68.515625 L 27.941406 68.515625 C 26.882812 68.515625 25.949219 67.875 25.558594 66.886719 L 20.925781 55.253906 C 20.742188 54.789062 20.644531 54.296875 20.644531 53.789062 L 20.644531 37.5 C 20.644531 36.074219 21.800781 34.914062 23.21875 34.914062 L 54.070312 34.914062 C 55.488281 34.914062 56.640625 36.074219 56.640625 37.5 L 56.640625 53.789062 C 56.640625 54.296875 56.546875 54.789062 56.359375 55.257812 L 51.730469 66.890625 C 51.339844 67.875 50.402344 68.515625 49.34375 68.515625 Z M 49.34375 68.515625 " fill-opacity="1" fill-rule="nonzero"/><path fill="#000000" d="M 37.359375 65.929688 L 39.929688 65.929688 L 39.929688 68.515625 L 37.359375 68.515625 Z M 37.359375 65.929688 " fill-opacity="1" fill-rule="nonzero"/><path fill="#000000" d="M 28.359375 67.222656 L 30.929688 67.222656 L 30.929688 74.976562 L 28.359375 74.976562 Z M 28.359375 67.222656 " fill-opacity="1" fill-rule="nonzero"/><path fill="#000000" d="M 46.355469 67.222656 L 48.929688 67.222656 L 48.929688 74.976562 L 46.355469 74.976562 Z M 46.355469 67.222656 " fill-opacity="1" fill-rule="nonzero"/><path fill="#000000" d="M 25.019531 60.761719 L 52.269531 60.761719 L 52.269531 63.347656 L 25.019531 63.347656 Z M 25.019531 60.761719 " fill-opacity="1" fill-rule="nonzero"/><path fill="#000000" d="M 22.960938 55.59375 L 36.074219 55.59375 L 36.074219 58.175781 L 22.960938 58.175781 Z M 22.960938 55.59375 " fill-opacity="1" fill-rule="nonzero"/><path fill="#000000" d="M 38.644531 55.59375 L 41.214844 55.59375 L 41.214844 58.175781 L 38.644531 58.175781 Z M 38.644531 55.59375 " fill-opacity="1" fill-rule="nonzero"/><path fill="#000000" d="M 43.785156 55.59375 L 54.328125 55.59375 L 54.328125 58.175781 L 43.785156 58.175781 Z M 43.785156 55.59375 " fill-opacity="1" fill-rule="nonzero"/></svg>