<svg xmlns="http://www.w3.org/2000/svg" xmlns:xlink="http://www.w3.org/1999/xlink" width="100" zoomAndPan="magnify" viewBox="0 0 75 74.999997" height="100" preserveAspectRatio="xMidYMid meet" version="1.0"><defs><clipPath id="ed0e1f2f5d"><path d="M 13.714844 3.699219 L 60.964844 3.699219 L 60.964844 71.199219 L 13.714844 71.199219 Z M 13.714844 3.699219 " clip-rule="nonzero"/></clipPath></defs><path fill="#000000" d="M 37.339844 15.566406 C 36.082031 15.566406 33.894531 19.289062 33.488281 25.453125 L 41.1875 25.453125 C 40.785156 19.289062 38.59375 15.566406 37.339844 15.566406 Z M 37.339844 15.566406 " fill-opacity="1" fill-rule="nonzero"/><path fill="#000000" d="M 37.339844 39.296875 C 38.59375 39.296875 40.785156 35.574219 41.1875 29.410156 L 33.488281 29.410156 C 33.894531 35.574219 36.082031 39.296875 37.339844 39.296875 Z M 37.339844 39.296875 " fill-opacity="1" fill-rule="nonzero"/><path fill="#000000" d="M 48.941406 25.453125 C 48.363281 22.023438 46.332031 19.113281 43.492188 17.355469 C 44.40625 19.699219 44.953125 22.519531 45.121094 25.453125 Z M 48.941406 25.453125 " fill-opacity="1" fill-rule="nonzero"/><path fill="#000000" d="M 31.183594 17.355469 C 28.34375 19.113281 26.3125 22.023438 25.734375 25.453125 L 29.554688 25.453125 C 29.726562 22.519531 30.273438 19.699219 31.183594 17.355469 Z M 31.183594 17.355469 " fill-opacity="1" fill-rule="nonzero"/><path fill="#000000" d="M 31.183594 37.507812 C 30.273438 35.164062 29.726562 32.34375 29.554688 29.410156 L 25.734375 29.410156 C 26.3125 32.835938 28.34375 35.75 31.183594 37.507812 Z M 31.183594 37.507812 " fill-opacity="1" fill-rule="nonzero"/><g clip-path="url(#ed0e1f2f5d)"><path fill="#000000" d="M 13.734375 27.429688 C 13.734375 32.085938 15.074219 36.59375 17.578125 40.417969 L 35.664062 70.257812 C 36.019531 70.84375 36.65625 71.199219 37.339844 71.199219 C 38.023438 71.199219 38.65625 70.84375 39.015625 70.257812 L 57.066406 40.46875 C 59.601562 36.59375 60.945312 32.085938 60.945312 27.429688 C 60.945312 14.34375 50.355469 3.699219 37.339844 3.699219 C 24.320312 3.699219 13.734375 14.34375 13.734375 27.429688 Z M 37.339844 11.609375 C 46.015625 11.609375 53.074219 18.707031 53.074219 27.429688 C 53.074219 36.15625 46.015625 43.25 37.339844 43.25 C 28.660156 43.25 21.601562 36.15625 21.601562 27.429688 C 21.601562 18.707031 28.660156 11.609375 37.339844 11.609375 Z M 37.339844 11.609375 " fill-opacity="1" fill-rule="nonzero"/></g><path fill="#000000" d="M 48.941406 29.410156 L 45.121094 29.410156 C 44.953125 32.34375 44.40625 35.164062 43.492188 37.507812 C 46.332031 35.75 48.363281 32.835938 48.941406 29.410156 Z M 48.941406 29.410156 " fill-opacity="1" fill-rule="nonzero"/></svg>